<svg width="15" height="15" viewBox="0 0 15 15" fill="none" xmlns="http://www.w3.org/2000/svg">
<g id="fi-rs-filter 1">
<g clip-path="url(#clip0_178_7473)">
<path id="Vector" d="M9.47331 14.1389L5.97331 11.5139V8.52719L1.30664 3.27719V1.88885C1.30664 1.42473 1.49102 0.979607 1.8192 0.651418C2.14739 0.323229 2.59251 0.138855 3.05664 0.138855L12.39 0.138855C12.8541 0.138855 13.2992 0.323229 13.6274 0.651418C13.9556 0.979607 14.14 1.42473 14.14 1.88885V3.27719L9.47331 8.52719V14.1389ZM7.13997 10.9305L8.30664 11.8055V8.08385L12.9733 2.83385V1.88885C12.9733 1.73415 12.9118 1.58577 12.8025 1.47638C12.6931 1.36698 12.5447 1.30552 12.39 1.30552H3.05664C2.90193 1.30552 2.75356 1.36698 2.64416 1.47638C2.53477 1.58577 2.47331 1.73415 2.47331 1.88885V2.83385L7.13997 8.08385V10.9305Z" fill="#3BB77E"/>
</g>
</g>
<defs>
<clipPath id="clip0_178_7473">
<rect x="0.723267" y="0.138855" width="14" height="14" fill="white"/>
</clipPath>
</defs>
</svg>
