<svg width="100" height="100" viewBox="0 0 100 100" fill="none" xmlns="http://www.w3.org/2000/svg">
<g id="003-exchange" clip-path="url(#clip0_131_4688)">
<path id="Vector 17" d="M19.9023 23.8943V50.6849C24.9708 48.9954 37.4248 48.6575 46.6929 60.8219C48.8652 65.4077 52.3407 76.0274 48.8652 81.8199L59.0021 87.6125V44.1683L19.9023 23.8943Z" fill="#FDC040"/>
<path id="Vector" d="M98.9868 21.6277L60.0402 0.241753C59.455 -0.0794449 58.7455 -0.0794449 58.1603 0.241753L43.4806 8.30221C43.1709 8.38385 42.8817 8.53948 42.6421 8.76303L19.2145 21.6277C18.5897 21.9703 18.2014 22.6264 18.2014 23.3398V49.2049C14.2493 50.4409 10.6277 52.6206 7.61633 55.6327C-0.23279 63.4811 -2.23398 75.4516 2.63663 85.4194C3.10965 86.3883 4.27924 86.7904 5.24817 86.3166C6.21787 85.8428 6.61917 84.6732 6.14615 83.7043C2.00796 75.2349 3.70856 65.0642 10.3782 58.3945C14.5492 54.2236 20.0942 51.9263 25.9925 51.9263C31.8908 51.9263 37.4358 54.2236 41.6068 58.3945C45.7771 62.5648 48.0743 68.1098 48.0743 74.0081C48.0743 79.9064 45.7771 85.4514 41.6061 89.6224C34.9364 96.2921 24.7657 97.9926 16.2963 93.8545C15.3274 93.3807 14.1578 93.7827 13.6848 94.7517C13.211 95.7214 13.6123 96.891 14.582 97.364C18.2128 99.1386 22.1084 100.001 25.9757 100.001C32.7224 99.9999 39.379 97.3739 44.3687 92.3843C46.6567 90.0962 48.4649 87.4564 49.7443 84.587L58.1603 89.2082C58.4533 89.3691 58.7768 89.4492 59.1003 89.4492C59.4238 89.4492 59.748 89.3691 60.0402 89.2082L98.9868 67.823C99.6116 67.4796 99.9999 66.8235 99.9999 66.1109V52.5375C99.9999 51.4587 99.1256 50.5843 98.0468 50.5843C96.968 50.5843 96.0937 51.4587 96.0937 52.5375V64.9551L61.0595 84.1926V45.8778L72.6219 39.5286V49.5933C72.6219 50.2845 72.9865 50.9238 73.5809 51.2748C73.8876 51.4556 74.2309 51.5464 74.575 51.5464C74.8985 51.5464 75.2227 51.4663 75.5164 51.3045L83.8623 46.7109C84.4863 46.3676 84.8731 45.7122 84.8731 45.0004V32.801L96.0937 26.6402V36.9132C96.0937 37.992 96.968 38.8663 98.0468 38.8663C99.1256 38.8663 99.9999 37.992 99.9999 36.9132V23.3398C99.9999 22.6272 99.6116 21.9703 98.9868 21.6277ZM59.1003 4.18157L93.9887 23.3398L82.9833 29.383L48.0949 10.2248L59.1003 4.18157ZM59.1003 42.4972L24.2118 23.3398L35.6208 17.0745L70.51 36.2319L59.1003 42.4972ZM74.5674 34.0041L39.6789 14.8467L44.0368 12.4534L78.926 31.6108L74.5674 34.0041ZM44.3687 55.6327C39.4599 50.7239 32.9337 48.0209 25.9925 48.0209C24.6795 48.0209 23.3825 48.1177 22.1076 48.3077V26.6402L57.154 45.8846V84.1995L51.0711 80.8593C51.67 78.6544 51.9798 76.3549 51.9798 74.0081C51.9798 67.0669 49.2767 60.5407 44.3687 55.6327ZM80.9677 43.846L76.5281 46.2897V37.3839L80.9677 34.9464V43.846Z" fill="#3BB77E"/>
<path id="Vector_2" d="M98.0469 42.7621C97.5334 42.7621 97.0291 42.9711 96.666 43.3343C96.3028 43.6974 96.0938 44.201 96.0938 44.7152C96.0938 45.2287 96.3028 45.7322 96.666 46.0954C97.0291 46.4593 97.5334 46.6676 98.0469 46.6676C98.5603 46.6676 99.0646 46.4593 99.4278 46.0954C99.7909 45.7322 100 45.2287 100 44.7152C100 44.201 99.7909 43.6974 99.4278 43.3343C99.0646 42.9711 98.5603 42.7621 98.0469 42.7621Z" fill="#3BB77E"/>
<path id="Vector_3" d="M19.4252 75.9606C19.9249 75.9606 20.4254 75.7699 20.8061 75.3892C21.5691 74.6262 21.5691 73.3895 20.8061 72.6266L19.4534 71.2731H30.9967C33.7967 71.2731 36.0748 73.5513 36.0748 76.3512C36.0748 79.1512 33.7967 81.4294 30.9967 81.4294H24.157C23.0782 81.4294 22.2038 82.3037 22.2038 83.3825C22.2038 84.4605 23.0782 85.3349 24.157 85.3349H30.9967C35.9505 85.3349 39.9811 81.305 39.9811 76.3512C39.9811 71.3975 35.9505 67.3676 30.9967 67.3676H19.4534L20.8061 66.0142C21.5691 65.2512 21.5691 64.0145 20.8061 63.2516C20.044 62.4894 18.8072 62.4894 18.0443 63.2516L13.3568 67.9391C12.5946 68.702 12.5946 69.9387 13.3568 70.7017L18.0443 75.3884C18.4258 75.7699 18.9255 75.9606 19.4252 75.9606Z" fill="#3BB77E"/>
<path id="Vector_4" d="M8.99926 92.9589C8.44384 92.9589 7.89224 92.7224 7.50695 92.2639L7.50314 92.2593C6.80886 91.4338 6.91568 90.2024 7.74118 89.5082C8.56668 88.8131 9.79883 88.9199 10.4931 89.7454C11.1866 90.5717 11.0821 91.8054 10.2566 92.4997C9.88962 92.8079 9.4433 92.9589 8.99926 92.9589Z" fill="#3BB77E"/>
</g>
<defs>
<clipPath id="clip0_131_4688">
<rect width="100" height="100" fill="white"/>
</clipPath>
</defs>
</svg>
