<svg width="100" height="100" viewBox="0 0 100 100" fill="none" xmlns="http://www.w3.org/2000/svg">
<g id="002-assortment" clip-path="url(#clip0_131_4669)">
<g id="Group">
<g id="Group_2">
<path id="Vector" d="M73.4016 94.3362C72.3889 94.3362 71.5562 95.1067 71.458 96.0936H56.7602L54.4414 82.1309L57.0187 79.5538C57.385 79.1876 57.5908 78.6907 57.5908 78.1727C57.5908 77.6548 57.385 77.1581 57.0187 76.7917L54.7383 74.5112H58.635C62.9115 74.5112 66.891 76.6339 69.2795 80.1893C69.8811 81.0846 71.0947 81.3227 71.9898 80.7214C72.8852 80.1198 73.1234 78.9063 72.5219 78.0108C69.4309 73.41 64.2963 70.6503 58.7664 70.6069C60.6584 68.5116 61.8125 65.7378 61.8125 62.6991V59.8344C61.8125 53.3212 56.5137 48.0223 50.0004 48.0223C43.4871 48.0223 38.1883 53.3212 38.1883 59.8344V62.6991C38.1883 65.7386 39.3428 68.5128 41.2354 70.6083C32.0764 70.679 24.6465 78.1491 24.6465 87.3245V98.0468C24.6465 99.1253 25.5209 99.9999 26.5996 99.9999H73.4012C74.4799 99.9999 75.3543 99.1253 75.3543 98.0468V96.2893C75.3547 95.2108 74.4803 94.3362 73.4016 94.3362ZM50.0232 81.0251L47.1707 78.1727L50.0232 75.3204L52.8758 78.1727L50.0232 81.0251ZM49.0123 85.4561C49.3223 85.644 49.6723 85.7403 50.023 85.7403C50.3738 85.7403 50.724 85.6442 51.0338 85.4561L52.8004 96.0936H47.2457L49.0123 85.4561ZM42.0949 59.8344C42.0949 55.4753 45.6414 51.9286 50.0008 51.9286C54.3602 51.9286 57.9066 55.4751 57.9066 59.8344V62.6991C57.9066 67.0583 54.3602 70.605 50.0008 70.605C45.6414 70.605 42.0949 67.0585 42.0949 62.6991V59.8344ZM28.5531 87.3245C28.5531 80.2591 34.3012 74.5112 41.3664 74.5112H45.3078L43.0273 76.7917C42.6611 77.1581 42.4553 77.6548 42.4553 78.1727C42.4553 78.6907 42.6611 79.1876 43.0273 79.5538L45.6047 82.1309L43.2859 96.0936H28.5529V87.3245H28.5531Z" fill="#3BB77E"/>
<g id="Vector 16">
<path d="M39.6484 2.16797C40.2266 2.16797 53.3789 2.64974 59.8828 2.89062V23.8477L39.6484 23.125V2.16797Z" fill="#FDC040"/>
<path d="M85.8984 2.89062L75.7812 21.6797H97.4609L87.3437 3.61328L85.8984 2.89062Z" fill="#FDC040"/>
<path d="M39.6484 2.16797C40.2266 2.16797 53.3789 2.64974 59.8828 2.89062V23.8477L39.6484 23.125V2.16797Z" stroke="black" stroke-linecap="round" stroke-linejoin="round"/>
<path d="M85.8984 2.89062L75.7812 21.6797H97.4609L87.3437 3.61328L85.8984 2.89062Z" stroke="black" stroke-linecap="round" stroke-linejoin="round"/>
</g>
<path id="Vector_2" d="M24.9775 12.4896C24.9775 5.60332 19.375 0.000976562 12.4889 0.000976562C5.60273 0.000976562 0 5.60352 0 12.4896C0 19.3758 5.60254 24.9783 12.4887 24.9783C19.3748 24.9783 24.9775 19.376 24.9775 12.4896ZM3.90625 12.4896C3.90625 7.75742 7.75625 3.90723 12.4887 3.90723C17.2211 3.90723 21.0711 7.75742 21.0711 12.4896C21.0711 17.2219 17.2211 21.0721 12.4887 21.0721C7.75625 21.0721 3.90625 17.2221 3.90625 12.4896Z" fill="#3BB77E"/>
<path id="Vector_3" d="M39.4648 24.9777H60.5361C61.6148 24.9777 62.4893 24.1031 62.4893 23.0245V1.95325C62.4893 0.874731 61.6148 0.00012207 60.5361 0.00012207H39.4648C38.3861 0.00012207 37.5117 0.874731 37.5117 1.95325V23.0245C37.5117 24.1031 38.3861 24.9777 39.4648 24.9777ZM41.418 3.90637H58.583V21.0714H41.418V3.90637Z" fill="#3BB77E"/>
<path id="Vector_4" d="M99.7387 21.272L88.469 1.75244C88.1202 1.14814 87.4754 0.775879 86.7776 0.775879C86.0797 0.775879 85.435 1.14814 85.0862 1.75244L73.8165 21.272C73.4674 21.8763 73.4674 22.6208 73.8165 23.2251C74.1653 23.8294 74.81 24.2017 75.5079 24.2017H98.0473C98.7452 24.2017 99.3899 23.8294 99.7387 23.2251C100.088 22.6208 100.088 21.8763 99.7387 21.272ZM78.8907 20.2954L86.7774 6.63525L94.6641 20.2954H78.8907Z" fill="#3BB77E"/>
<path id="Vector_5" d="M49.9994 44.1881C51.0781 44.1881 51.9525 43.3135 51.9525 42.235V36.6621L52.0316 36.7725C52.413 37.3055 53.0126 37.5893 53.6216 37.5893C54.015 37.5893 54.4122 37.4707 54.7568 37.2242C55.6339 36.5965 55.8361 35.3766 55.2083 34.4994L51.5878 29.4403C51.221 28.9278 50.6296 28.6237 49.9996 28.6237C49.3695 28.6237 48.7781 28.9278 48.4113 29.4403L44.7908 34.4994C44.163 35.3766 44.3652 36.5965 45.2423 37.2242C46.1195 37.852 47.3394 37.65 47.9673 36.7727L48.0462 36.6621V42.235C48.0462 43.3137 48.9206 44.1881 49.9994 44.1881Z" fill="#3BB77E"/>
<path id="Vector_6" d="M33.9187 60.0065C33.9187 58.928 33.0443 58.0533 31.9656 58.0533H14.4525V36.6621L14.5316 36.7725C14.913 37.3055 15.5126 37.5893 16.1216 37.5893C16.515 37.5893 16.9122 37.4707 17.2568 37.2242C18.1339 36.5965 18.3361 35.3766 17.7083 34.4994L14.0878 29.4403C13.721 28.9278 13.1296 28.6237 12.4995 28.6237C11.8695 28.6237 11.2781 28.9278 10.9113 29.4403L7.29076 34.4994C6.66302 35.3766 6.86517 36.5965 7.74232 37.2242C8.61927 37.852 9.83939 37.65 10.4673 36.7727L10.5462 36.6621V60.0065C10.5462 61.085 11.4206 61.9596 12.4994 61.9596H31.9656C33.0441 61.9596 33.9187 61.0852 33.9187 60.0065Z" fill="#3BB77E"/>
<path id="Vector_7" d="M89.0877 29.44C88.7209 28.9275 88.1295 28.6234 87.4994 28.6234C86.8693 28.6234 86.2779 28.9275 85.9111 29.44L82.2906 34.4992C81.6629 35.3763 81.865 36.5963 82.7422 37.224C83.6193 37.8517 84.8395 37.6498 85.4672 36.7724L85.5463 36.6621V58.0533H68.0332C66.9545 58.0533 66.0801 58.9279 66.0801 60.0064C66.0801 61.0849 66.9545 61.9595 68.0332 61.9595H87.4994C88.5781 61.9595 89.4525 61.0849 89.4525 60.0064V36.6621L89.5316 36.7724C89.9131 37.3054 90.5127 37.5892 91.1217 37.5892C91.515 37.5892 91.9123 37.4707 92.2568 37.2242C93.134 36.5965 93.3361 35.3765 92.7084 34.4994L89.0877 29.44Z" fill="#3BB77E"/>
<path id="Vector_8" d="M73.4004 89.4537C74.4791 89.4537 75.3535 88.5793 75.3535 87.5006C75.3535 86.4219 74.4791 85.5475 73.4004 85.5475C72.3217 85.5475 71.4473 86.4219 71.4473 87.5006C71.4473 88.5793 72.3217 89.4537 73.4004 89.4537Z" fill="#3BB77E"/>
</g>
</g>
</g>
<defs>
<clipPath id="clip0_131_4669">
<rect width="100" height="100" fill="white"/>
</clipPath>
</defs>
</svg>
