<svg width="100" height="100" viewBox="0 0 100 100" fill="none" xmlns="http://www.w3.org/2000/svg">
<g id="001-file">
<g id="surface1">
<ellipse id="Ellipse 5" cx="67.3828" cy="70.8203" rx="26.0156" ry="26.0156" fill="#FDC040"/>
<path id="Vector" d="M72.6456 43.2892V24.3645C72.6456 23.8228 72.3953 23.3223 72.0413 22.9263L50.824 0.64621C50.428 0.229645 49.865 0 49.3027 0H15.6631C9.45282 0 4.49219 5.06439 4.49219 11.2755V74.8856C4.49219 81.0966 9.45282 86.0779 15.6631 86.0779H42.2165C47.2389 94.4145 56.3683 100 66.7679 100C82.5661 100 95.4674 87.1613 95.4674 71.3425C95.4887 57.5241 85.5675 45.9778 72.6456 43.2892ZM51.387 7.31583L65.6219 22.3007H56.3889C53.6377 22.3007 51.387 20.0294 51.387 17.2783V7.31583ZM15.6631 81.9092C11.7661 81.9092 8.66089 78.7827 8.66089 74.8856V11.2755C8.66089 7.35703 11.7661 4.1687 15.6631 4.1687H47.2183V17.2783C47.2183 22.3427 51.3245 26.4694 56.3889 26.4694H68.4769V42.7467C67.852 42.7261 67.3515 42.6636 66.8098 42.6636C59.536 42.6636 52.8458 45.4567 47.802 49.8337H21.3325C20.1859 49.8337 19.2482 50.7713 19.2482 51.9173C19.2482 53.064 20.1859 54.0016 21.3325 54.0016H43.9255C42.4454 56.086 41.2155 58.1703 40.2573 60.463H21.3325C20.1859 60.463 19.2482 61.4006 19.2482 62.5473C19.2482 63.6932 20.1859 64.6317 21.3325 64.6317H38.9023C38.3812 66.716 38.1103 69.0292 38.1103 71.3425C38.1103 75.0938 38.8397 78.804 40.1527 81.9305H15.6631V81.9092ZM66.7892 95.8527C53.2837 95.8527 42.2996 84.8686 42.2996 71.3631C42.2996 57.8575 53.2623 46.8735 66.7892 46.8735C80.3154 46.8735 91.2781 57.8575 91.2781 71.3631C91.2781 84.8686 80.2948 95.8527 66.7892 95.8527Z" fill="#3BB77E"/>
<path id="Vector_2" d="M21.3324 43.5601H42.4452C43.5919 43.5601 44.5296 42.6216 44.5296 41.4757C44.5296 40.329 43.5919 39.3914 42.4452 39.3914H21.3324C20.1857 39.3914 19.248 40.329 19.248 41.4757C19.248 42.6216 20.1857 43.5601 21.3324 43.5601Z" fill="#3BB77E"/>
<path id="Vector_3" d="M66.1019 58.5037C66.269 58.5449 66.4353 58.5663 66.6024 58.5663C66.8106 58.5663 66.9983 58.5449 67.186 58.4823C69.9372 58.712 72.0841 61.0046 72.0841 63.7977C72.0841 64.9437 73.0217 65.8813 74.1677 65.8813C75.3144 65.8813 76.252 64.9437 76.252 63.7977C76.252 59.2125 73.0011 55.3772 68.6867 54.4807V53.1471C68.6867 52.0004 67.7483 51.0627 66.6024 51.0627C65.4557 51.0627 64.518 52.0004 64.518 53.1471V54.5646C60.3493 55.5648 57.2441 59.3376 57.2441 63.7977C57.2441 69.0498 61.5166 73.3017 66.7481 73.3017C69.6869 73.3017 72.0841 75.6981 72.0841 78.6369C72.0841 81.5757 69.7075 83.9935 66.7481 83.9935C63.8092 83.9935 61.4128 81.5963 61.4128 78.6575C61.4128 77.5116 60.4744 76.5731 59.3285 76.5731C58.1818 76.5731 57.2441 77.5116 57.2441 78.6575C57.2441 83.139 60.3493 86.8904 64.518 87.8906V90.0375C64.518 91.1842 65.4557 92.1218 66.6024 92.1218C67.7483 92.1218 68.6867 91.1842 68.6867 90.0375V87.9532C73.0011 87.0567 76.252 83.2222 76.252 78.6369C76.252 73.3848 71.9796 69.133 66.7481 69.133C63.8092 69.133 61.4128 66.7358 61.4128 63.7977C61.4128 61.0878 63.4552 58.8165 66.1019 58.5037Z" fill="#3BB77E"/>
</g>
</g>
</svg>
