<svg width="100" height="100" viewBox="0 0 100 100" fill="none" xmlns="http://www.w3.org/2000/svg">
<g id="005-sale" clip-path="url(#clip0_131_4583)">
<path id="Vector 15" d="M63.5937 7.22656H49.1406L31.7969 24.5703L40.4687 29.6289L49.1406 20.957L67.207 39.0234L73.7109 46.9726L83.1055 48.418L87.4414 40.4687V13.0078L80.2148 7.22656H63.5937Z" fill="#FDC040"/>
<path id="Vector" d="M93.3594 20.7954H89.4493L89.4531 13.8054C89.4554 9.11255 85.64 5.29251 80.9464 5.29022L51.2711 5.27344C51.2695 5.27344 51.2688 5.27344 51.2672 5.27344C49.5781 5.27344 47.9897 5.93109 46.7949 7.12585L2.49252 51.4282C0.88501 53.0357 0 55.1727 0 57.4463C0 59.7198 0.88501 61.8568 2.49252 63.4644L31.2431 92.215C32.9025 93.8744 35.0822 94.7037 37.2612 94.7037C39.4409 94.7037 41.6206 93.8744 43.28 92.215L71.1731 64.3219C71.936 63.559 71.936 62.3222 71.1731 61.5601C70.4102 60.7971 69.1734 60.7971 68.4105 61.5601L40.5174 89.4531C38.7222 91.2483 35.8009 91.2483 34.0057 89.4531L5.25513 60.7025C4.38538 59.8328 3.90625 58.6761 3.90625 57.4463C3.90625 56.2164 4.38538 55.0598 5.25513 54.1901L49.5567 9.88846C50.0137 9.43146 50.621 9.17969 51.2672 9.17969H51.2688L80.9441 9.19647C83.4831 9.19724 85.5484 11.2648 85.5469 13.8039L85.5377 30.1704H76.7403C75.9827 30.1704 75.2968 29.8607 74.8009 29.3617C75.618 29.0115 76.384 28.5057 77.05 27.8397C79.8569 25.032 79.8569 20.4651 77.05 17.6582C74.2424 14.8506 69.6754 14.8506 66.8678 17.6582C64.061 20.4651 64.061 25.032 66.8678 27.8397C67.9085 28.8803 69.1917 29.5341 70.5368 29.8035C71.4928 32.299 73.912 34.0767 76.7403 34.0767H85.5354L85.5301 43.4395C85.5301 44.0857 85.2783 44.6922 84.8213 45.1485L79.4594 50.5112C78.6964 51.2741 78.6964 52.5108 79.4594 53.2738C80.2216 54.0359 81.4583 54.0359 82.2212 53.2738L87.5839 47.9111C88.7772 46.7171 89.4356 45.1302 89.4363 43.4418L89.4417 34.0767H93.3594C97.0207 34.0767 100 31.0982 100 27.4361C100 23.7747 97.0207 20.7954 93.3594 20.7954ZM69.6304 20.4201C70.2728 19.7777 71.1159 19.4572 71.9597 19.4572C72.8027 19.4572 73.6458 19.7784 74.2882 20.4201C74.4911 20.6238 74.659 20.8488 74.7978 21.0861C72.654 21.743 70.9694 23.4589 70.3537 25.621C70.0951 25.4768 69.8502 25.2975 69.6304 25.0778C68.3464 23.793 68.3464 21.7041 69.6304 20.4201ZM93.3594 30.1704H89.444L89.447 24.7017H93.3594C94.8669 24.7017 96.0938 25.9285 96.0938 27.4361C96.0938 28.9436 94.8669 30.1704 93.3594 30.1704Z" fill="#3BB77E"/>
<path id="Vector_2" d="M31.5271 54.5517C31.7674 55.4161 32.5524 55.9814 33.4069 55.9814C33.5809 55.9814 33.7571 55.9585 33.9318 55.9097L53.9819 50.3288C55.021 50.0397 55.6291 48.9624 55.3399 47.9233C55.0508 46.8849 53.9743 46.2768 52.9344 46.566L32.8843 52.1461C31.846 52.4361 31.2379 53.5126 31.5271 54.5517Z" fill="#3BB77E"/>
<path id="Vector_3" d="M40.3509 57.1288C39.263 58.2168 38.6641 59.6625 38.6641 61.2014C38.6641 62.7395 39.263 64.1852 40.3509 65.2732C41.474 66.3955 42.948 66.957 44.4227 66.957C45.8975 66.957 47.3723 66.3955 48.4953 65.2732C50.7406 63.0279 50.7406 59.3742 48.4953 57.1288C46.25 54.8835 42.5963 54.8835 40.3509 57.1288ZM45.7327 62.5106C45.0102 63.2331 43.8353 63.2331 43.1128 62.5106C42.7626 62.1612 42.5703 61.6958 42.5703 61.2006C42.5703 60.7062 42.7633 60.2409 43.1128 59.8907C43.4744 59.5298 43.9489 59.349 44.4227 59.349C44.8973 59.349 45.3718 59.5298 45.7327 59.8907C46.4552 60.6132 46.4552 61.7889 45.7327 62.5106Z" fill="#3BB77E"/>
<path id="Vector_4" d="M49.4631 45.5002C51.7085 43.2541 51.7085 39.6011 49.4631 37.3558C48.3752 36.2679 46.9287 35.6689 45.3906 35.6689C43.8525 35.6689 42.406 36.2679 41.3188 37.3558C39.0734 39.6011 39.0734 43.2541 41.3188 45.5002C42.4418 46.6225 43.9158 47.184 45.3906 47.184C46.8653 47.184 48.3401 46.6225 49.4631 45.5002ZM44.0806 40.1176C44.4308 39.7675 44.8962 39.5752 45.3906 39.5752C45.8857 39.5752 46.3511 39.7675 46.7005 40.1176C47.423 40.8402 47.423 42.0151 46.7005 42.7376C45.9788 43.4601 44.8031 43.4601 44.0806 42.7376C43.3589 42.0151 43.3589 40.8402 44.0806 40.1176Z" fill="#3BB77E"/>
<path id="Vector_5" d="M19.4254 50.5158C18.6625 49.7528 17.4258 49.7528 16.6628 50.5158L11.1132 56.0654C10.747 56.4316 10.541 56.9283 10.541 57.4463C10.541 57.9644 10.747 58.461 11.1132 58.8272L35.8805 83.5945C36.2612 83.9753 36.7617 84.166 37.2614 84.166C37.7612 84.166 38.2609 83.9753 38.6424 83.5945L75.6724 46.5638C76.4353 45.8008 76.4353 44.5641 75.6724 43.8011L50.9058 19.0346C50.5396 18.6684 50.043 18.4624 49.5249 18.4624C49.0069 18.4624 48.5102 18.6684 48.144 19.0346L27.7117 39.4669C26.9488 40.2298 26.9488 41.4666 27.7117 42.2295C28.4739 42.9917 29.7106 42.9917 30.4736 42.2295L49.5249 23.1781L71.5296 45.1828L37.2614 79.451L15.2567 57.4463L19.4254 53.2776C20.1876 52.5147 20.1884 51.2787 19.4254 50.5158Z" fill="#3BB77E"/>
<path id="Vector_6" d="M75.3164 55.4634C74.8022 55.4634 74.2986 55.6724 73.9355 56.0356C73.5723 56.3987 73.3633 56.903 73.3633 57.4165C73.3633 57.93 73.5723 58.4343 73.9355 58.7974C74.2986 59.1606 74.8022 59.3696 75.3164 59.3696C75.8299 59.3696 76.3334 59.1606 76.6973 58.7974C77.0605 58.4343 77.2695 57.93 77.2695 57.4165C77.2695 56.903 77.0605 56.3987 76.6973 56.0356C76.3334 55.6724 75.8299 55.4634 75.3164 55.4634Z" fill="#3BB77E"/>
<path id="Vector_7" d="M24.9485 47.7524C25.314 47.3892 25.5215 46.8872 25.5215 46.3715C25.5215 45.858 25.314 45.356 24.9485 44.9905C24.5854 44.6274 24.0833 44.4183 23.5684 44.4183C23.0541 44.4183 22.5506 44.6274 22.1874 44.9905C21.8235 45.3537 21.6152 45.858 21.6152 46.3715C21.6152 46.8872 21.8235 47.3892 22.1874 47.7524C22.5521 48.1178 23.0541 48.3246 23.5684 48.3246C24.0833 48.3246 24.5854 48.1178 24.9485 47.7524Z" fill="#3BB77E"/>
</g>
<defs>
<clipPath id="clip0_131_4583">
<rect width="100" height="100" fill="white"/>
</clipPath>
</defs>
</svg>
