<svg width="100" height="100" viewBox="0 0 100 100" fill="none" xmlns="http://www.w3.org/2000/svg">
<g id="006-deal" clip-path="url(#clip0_131_4694)">
<g id="Group">
<g id="Group_2">
<g id="Vector 14">
<path d="M64.043 47.6953L69.1016 39.7461L76.3281 36.1328C77.2917 35.8919 79.3633 35.5546 79.9414 36.1328C80.5195 36.7109 88.8542 47.9362 92.9492 53.4766L96.5625 59.9805C95.8398 61.4258 94.25 64.4609 93.6719 65.0391C93.0937 65.6172 87.6497 68.1706 85 69.375C83.5547 69.6159 80.5195 70.0976 79.9414 70.0976C79.3633 70.0976 72.4739 60.944 69.1016 56.3672L65.3076 49.8633L64.043 47.6953Z" fill="#FDC040"/>
<path d="M79.9414 70.0976C79.3633 70.0976 72.4739 60.944 69.1016 56.3672L65.3076 49.8633H62.5976H55.3711C54.6484 49.8633 51.0352 51.3086 49.5898 52.0312L45.2539 54.1992C43.8086 54.9219 42.3633 56.3672 41.6406 57.0898C40.918 57.8125 39.4727 59.9805 39.4727 60.7031C39.4727 61.4258 39.4727 62.8711 40.1953 63.5937C40.918 64.3164 42.3633 65.0391 43.0859 65.0391H47.4219C48.5781 65.0391 51.7578 63.5937 53.2031 62.8711C53.6849 63.112 54.793 63.7383 55.3711 64.3164C55.9492 64.8945 60.9115 68.4114 63.3203 70.0976L69.1016 75.8789C70.0651 76.3607 72.1367 77.1797 72.7148 76.6015C73.293 76.0234 75.3646 74.4336 76.3281 73.7109L78.4961 72.2656L79.9414 70.0976Z" fill="#FDC040"/>
<path d="M22.1289 78.0469C22.1289 79.2031 24.056 81.4193 25.0195 82.3828L30.0781 86.7187L32.9687 88.8867L35.8594 91.7773C36.8229 92.2591 38.75 93.3672 38.75 93.9453C38.75 94.5234 41.6406 95.1497 43.0859 95.3906C43.8086 94.9088 45.3984 93.8008 45.9766 93.2226C46.6992 92.5 46.6992 92.5 46.6992 91.0547C46.6992 89.6094 46.6992 88.164 45.9766 86.7187C45.2539 85.2734 45.2539 82.3828 44.5312 81.6601C43.8086 80.9375 40.918 79.4922 40.918 78.7695C40.918 78.0469 38.75 75.1562 38.0273 74.4336C37.3047 73.7109 35.8594 70.8203 35.1367 70.0976C34.4141 69.375 32.2461 67.9297 30.8008 68.6523C29.3555 69.375 25.0195 72.9883 24.2969 73.7109C23.7187 74.2891 22.6107 76.8424 22.1289 78.0469Z" fill="#FDC040"/>
<path d="M35.8594 7.22656C40.1953 13.2487 52.625 25.0039 67.6562 23.8477L64.7656 32.5195L60.4297 36.1328L46.6992 40.4687L35.8594 36.8555L29.3555 25.293L30.0781 15.8984L33.6914 9.39453L35.8594 7.22656Z" fill="#FDC040"/>
</g>
<path id="Vector" d="M48.3837 25.9792C47.6208 25.9792 46.6852 25.8677 46.0446 25.1538C45.822 24.903 45.6268 24.6688 45.4376 24.4735C43.9116 22.8677 41.2831 25.0981 42.8759 27.1833L43.26 27.6796C43.5106 27.9921 43.9618 28.3544 44.6077 28.7671C45.2372 29.1682 45.9388 29.4583 46.7184 29.6311V32.3858C46.7184 33.3337 47.4923 34.1143 48.4393 34.1143C49.3917 34.1143 50.1991 33.3337 50.1991 32.3858V29.6145C51.4466 29.3249 52.5159 28.7169 53.3901 27.7969C54.2698 26.8766 54.7098 25.6557 54.7098 24.1335C54.7098 23.0964 54.5096 22.2323 54.1085 21.535C53.7075 20.8436 53.2175 20.3587 52.6327 20.0852C52.0425 19.812 51.402 19.5721 50.6946 19.3661C49.993 19.1598 49.3526 19.0147 48.7622 18.9257C48.1776 18.8417 47.6876 18.6632 47.2864 18.4014C46.8854 18.1335 46.685 17.788 46.685 17.3585C46.685 15.3067 49.6923 15.5575 51.0175 16.6727C52.9723 18.3177 55.1608 15.3067 52.8942 13.6061L52.6325 13.3718C52.4542 13.2327 52.1425 13.0596 51.6913 12.8421C51.2458 12.6249 50.7444 12.463 50.1989 12.3458V10.6788V9.95398C50.1989 9.00593 49.4247 8.22546 48.4725 8.22546C47.5257 8.22546 46.7462 9.00574 46.7462 9.95398V12.318C45.4763 12.569 44.4237 13.1993 43.6944 14.1302C42.9593 15.0782 42.5862 16.1266 42.5862 17.2971C42.5862 18.4739 42.8593 19.4385 43.4048 20.2024C43.9505 20.9659 44.6134 21.5014 45.3985 21.8137C46.1782 22.126 46.9577 22.377 47.7374 22.5608C48.5225 22.7507 49.1854 22.9567 49.7309 23.1966C50.2768 23.4307 50.5497 23.7598 50.5497 24.1891C50.5499 25.3823 49.8261 25.9792 48.3837 25.9792Z" fill="#3BB77E"/>
<path id="Vector_2" d="M97.9353 56.4156L81.8869 35.8594C80.8058 34.4711 79.1669 33.6748 77.3906 33.6748C76.1369 33.6748 74.95 34.0729 73.9539 34.8285L63.4509 42.8348C62.2488 43.751 61.4808 45.0807 61.2882 46.5787C61.2595 46.802 61.2459 47.0246 61.2435 47.2461C57.2396 46.9428 53.1041 47.2477 49.0878 49.8582L48.9078 49.9752L38.7478 48.4215C38.7687 48.0697 38.7574 47.7137 38.7111 47.3564C38.5173 45.8619 37.7505 44.5354 36.5507 43.6205L26.0453 35.6217C23.5839 33.7395 20.0252 34.1967 18.1113 36.6436L14.2855 41.5449C13.616 42.4023 13.7687 43.64 14.6261 44.3092C15.4837 44.9787 16.7214 44.826 17.3908 43.9686L21.2154 39.0689C21.7943 38.3287 22.9103 38.183 23.6556 38.7531L34.1634 46.7539C34.5193 47.0252 34.747 47.4189 34.8044 47.8631C34.8621 48.3078 34.7419 48.748 34.4677 49.1002L18.4162 69.6598C17.8412 70.3982 16.7238 70.5426 15.9796 69.9783L5.47632 61.9713C5.11851 61.6986 4.8898 61.3033 4.83257 60.8586C4.77574 60.416 4.89585 59.9787 5.17222 59.6256L7.90113 56.1297C8.57046 55.2723 8.41792 54.0346 7.56031 53.3654C6.70289 52.6957 5.46519 52.8486 4.79566 53.7061L2.06832 57.2C1.13921 58.3877 0.733355 59.8652 0.925542 61.3605C1.11792 62.8584 1.88628 64.1881 3.08824 65.1041L13.5949 73.1139C14.6173 73.8895 15.8257 74.2646 17.0263 74.2645C17.7207 74.2645 18.4115 74.1369 19.0628 73.8908L20.4226 75.7531C19.6835 77.1014 19.5683 78.7209 20.1623 80.284C21.0113 82.5187 23.0146 84.034 25.182 84.106C25.2492 84.4244 25.3423 84.7426 25.4695 85.0576C26.3431 87.2223 28.338 88.6957 30.4816 88.7926C30.4914 88.8488 30.4988 88.9053 30.5103 88.9615C30.9181 90.9436 32.4386 92.6361 34.3837 93.2738C34.8792 93.4363 35.3789 93.5197 35.8736 93.5344C36.063 94.3324 36.4591 95.1031 37.0679 95.7797C38.0169 96.8346 39.4025 97.5096 40.9224 97.5094C42.0261 97.5094 43.2009 97.1512 44.33 96.3258L46.5603 98.4105C47.6964 99.4707 49.1265 100 50.5429 100C51.9796 99.9998 53.4019 99.4553 54.488 98.3682C55.1357 97.7199 55.6375 96.9486 55.9621 96.1367C56.5156 96.3049 57.0562 96.3846 57.575 96.3846C59.0357 96.3844 60.3248 95.7676 61.2484 94.8162C62.0041 94.0379 62.5451 93.0018 62.7843 91.8973C62.8642 91.9014 62.9441 91.9047 63.0244 91.9055C63.0441 91.9057 63.0634 91.9057 63.0832 91.9057C64.6367 91.9057 66.1273 91.3039 67.18 90.2496C67.9175 89.5113 68.425 88.6025 68.6671 87.6104C69.0429 87.6836 69.4203 87.7219 69.7968 87.7219C70.2709 87.7219 70.7437 87.6631 71.2095 87.5438C73.1089 87.057 74.5755 85.5727 75.0371 83.6697C75.463 81.9139 75.0242 80.0641 73.8294 78.3828C76.9228 75.8941 78.174 74.6682 79.5871 72.376C80.5523 73.0859 81.7273 73.4771 82.9691 73.4771C84.2265 73.4771 85.4158 73.0762 86.4044 72.3201L96.914 64.3182C98.1128 63.4043 98.8798 62.0779 99.0736 60.5832C99.2673 59.0871 98.8638 57.6076 97.9353 56.4156ZM26.2125 79.7629C25.9107 80.0355 25.6181 80.1738 25.3425 80.1738C24.7769 80.1738 24.1191 79.608 23.8445 78.8852C23.5953 78.2287 23.7115 77.6803 24.1912 77.2543L24.1974 77.2488L24.2035 77.2436L30.839 71.3455C31.3941 70.8531 31.9527 70.5928 32.4548 70.5928C33.1896 70.5928 33.739 71.1508 33.9384 71.6695C34.1517 72.2236 34.0234 72.718 33.5593 73.1377L32.4027 74.1809L32.3996 74.1836C32.3939 74.1885 32.3884 74.1936 32.3828 74.1986C32.3414 74.2361 32.2986 74.2748 32.2564 74.3129L26.2125 79.7629ZM31.5759 84.4705C31.2769 84.7348 30.9919 84.8629 30.7052 84.8629C30.1074 84.8629 29.4123 84.301 29.1226 83.5832C28.8035 82.7926 29.1822 82.4275 29.3019 82.3119C29.3789 82.2381 29.4712 82.1496 29.5675 82.0465L29.5693 82.0449L29.5896 82.0269C29.9685 81.6885 33.305 78.6738 34.8992 77.2334L35.0179 77.1264C35.5582 76.6521 36.1054 76.4016 36.6013 76.4016C37.3834 76.4016 37.9656 77 38.1755 77.5559C38.3843 78.1086 38.2591 78.5924 37.8048 78.9924L37.3962 79.3518C37.3931 79.3545 37.3902 79.3566 37.3873 79.3594L37.3843 79.3623L31.5759 84.4705ZM37.4466 88.7219C37.4195 88.7463 37.3939 88.7719 37.3675 88.7967L36.9054 89.2137C36.4947 89.5848 36.0834 89.6859 35.6107 89.5309C35.0132 89.335 34.4914 88.7617 34.3691 88.168C34.2628 87.6518 34.4695 87.1732 34.9941 86.7107L35.6513 86.1365C35.6679 86.1221 35.6822 86.1062 35.6982 86.0914L40.0033 82.3053C41.0349 81.3934 42.0566 81.3019 42.7367 82.0623C42.8324 82.1693 43.6433 83.1334 42.6533 84.0277L40.0093 86.4135C39.981 86.4385 39.9523 86.4609 39.9242 86.4865C39.9142 86.4957 39.906 86.5063 39.8962 86.5152L37.4769 88.6982C37.4671 88.7066 37.4562 88.7131 37.4466 88.7219ZM39.9966 93.1449C39.789 92.9145 39.3886 92.317 40.0455 91.6861L42.683 89.3063C42.8826 89.1355 43.075 89.0002 43.255 88.9072C43.2632 88.9029 43.2716 88.8986 43.2798 88.8943C44.3429 88.3266 44.9191 88.9885 45.0707 89.2047C45.2654 89.4828 45.5029 90.0291 44.9058 90.5654L43.0988 92.1896C43.0919 92.1957 43.0853 92.202 43.0785 92.208L42.2951 92.9121C41.0078 94.0676 40.2103 93.3828 39.9966 93.1449ZM71.2087 82.7412C71.0876 83.2402 70.7316 83.5998 70.2318 83.7279C69.4033 83.94 68.3544 83.4799 67.3943 82.4947C67.3222 82.415 67.2484 82.3365 67.1712 82.2605L59.7365 74.9113C58.9627 74.1469 57.7156 74.1539 56.9509 74.9275C56.1863 75.7012 56.1933 76.9482 56.9669 77.7129L64.3898 85.0502C64.4021 85.0633 64.4148 85.0762 64.4269 85.0893C64.7234 85.3943 64.8884 85.8018 64.8902 86.2428C64.8919 86.7086 64.7154 87.143 64.3927 87.466C64.0746 87.7848 63.5986 87.9666 63.0841 87.9666C63.0769 87.9666 63.0699 87.9666 63.0627 87.9664C62.6072 87.9621 62.1916 87.8096 61.899 87.5434C61.7757 87.384 61.6416 87.2295 61.4941 87.0814L56.0587 81.6394C55.29 80.8701 54.0429 80.8693 53.2732 81.6377C52.5037 82.4064 52.5029 83.6533 53.2714 84.423L58.4259 89.584C58.488 89.6748 58.557 89.7625 58.6363 89.8443L58.8556 90.0705C59.1382 90.6086 58.963 91.5152 58.422 92.0727C57.5873 92.9322 56.4123 92.1744 55.5753 91.3883L53.2476 89.1971C52.4556 88.4514 51.2089 88.4891 50.4634 89.281C49.7177 90.0732 49.7554 91.3197 50.5474 92.0654L52.3255 93.7391C52.3298 93.7432 52.3334 93.7477 52.3377 93.7516C52.3783 93.7895 52.4394 93.8469 52.4425 94.0455C52.4501 94.507 52.1453 95.14 51.7013 95.5844C51.0533 96.233 49.9757 96.2098 49.2494 95.5318L47.3001 93.71L47.5384 93.4957C49.4712 91.7602 49.7832 89.0666 48.297 86.9451C47.8134 86.2547 47.2078 85.7184 46.5283 85.3461C47.4861 83.4572 47.2183 81.1639 45.6724 79.4359C44.8003 78.4609 43.5685 77.7951 42.1935 77.6477C42.1543 77.1535 42.046 76.6555 41.8607 76.1645C41.1916 74.393 39.7043 73.0891 37.9539 72.6375C38.0267 71.8527 37.9183 71.0426 37.6152 70.2545C36.7861 68.1008 34.7126 66.6535 32.455 66.6535C30.9746 66.6535 29.5121 67.2568 28.2238 68.3996L23.1951 72.8695L22.0896 71.3557L37.083 52.1518L43.938 53.2002L42.9009 53.873C37.3462 57.4769 36.9396 61.6682 38.4115 64.3891C39.5894 66.567 41.9404 67.8119 44.4359 67.8119C45.4632 67.8117 46.5156 67.6008 47.5201 67.1568C47.5466 67.1449 47.573 67.1328 47.5988 67.1199L52.7918 64.5451L55.7896 67.2746C55.7925 67.2773 55.7957 67.2793 55.7984 67.2818C55.8013 67.2846 55.8037 67.2873 55.8066 67.29L69.6625 79.6127C70.8498 80.6684 71.4279 81.8379 71.2087 82.7412ZM71.0431 75.5691L58.433 64.3543L54.4486 60.7266C53.8486 60.1799 52.9746 60.0574 52.2476 60.4182L45.8914 63.5699C44.1644 64.3127 42.4658 63.6059 41.8759 62.5154C41.0654 61.017 42.2794 58.9717 45.0447 57.1779L51.2332 53.1621C54.5886 50.9809 58.1086 50.8125 62.9236 51.3713L76.866 69.2359C75.3947 71.8781 74.6132 72.7168 71.0431 75.5691ZM95.1669 60.0768C95.1095 60.5203 94.8818 60.9141 94.5267 61.1848L84.0146 69.1885C83.6371 69.4773 83.2378 69.5379 82.9695 69.5379C82.4169 69.5377 81.9097 69.2945 81.5792 68.8719L65.5334 48.3121C65.2584 47.9604 65.1382 47.5232 65.1953 47.0807C65.2525 46.6357 65.481 46.2402 65.839 45.9674L76.3386 37.9637C76.7195 37.6748 77.1207 37.6141 77.3904 37.6141C77.9435 37.6141 78.4494 37.8564 78.7802 38.2813L94.8287 58.8377C95.1044 59.192 95.2248 59.6318 95.1669 60.0768Z" fill="#3BB77E"/>
<path id="Vector_3" d="M38.4424 40.0123C41.5348 41.6809 45.0279 42.5629 48.5443 42.5629C60.2674 42.5629 69.8049 33.0146 69.8049 21.2785C69.8049 13.0875 65.023 5.53398 57.624 2.03535C54.7736 0.684766 51.7189 0 48.5443 0C36.824 0 27.2891 9.54551 27.2891 21.2785C27.2891 29.1039 31.5615 36.2816 38.4424 40.0123ZM48.5443 3.93906C51.1309 3.93906 53.6182 4.49629 55.9387 5.59551C61.9689 8.44687 65.8656 14.6029 65.8656 21.2785C65.8656 30.8428 58.0953 38.6238 48.5445 38.6238C45.6789 38.6238 42.8326 37.9051 40.3166 36.5477C34.7107 33.508 31.2283 27.6572 31.2283 21.2785C31.2283 11.7176 38.9961 3.93906 48.5443 3.93906Z" fill="#3BB77E"/>
<path id="Vector_4" d="M9.86417 50.3739C10.2269 50.6633 10.6607 50.804 11.0915 50.804C11.67 50.804 12.2433 50.5503 12.6321 50.0628L12.6544 50.0348C13.3329 49.1846 13.1937 47.9454 12.3435 47.2669C11.4933 46.5887 10.2538 46.7274 9.5755 47.578L9.55323 47.6059C8.87472 48.4561 9.01397 49.6954 9.86417 50.3739Z" fill="#3BB77E"/>
</g>
</g>
</g>
<defs>
<clipPath id="clip0_131_4694">
<rect width="100" height="100" fill="white"/>
</clipPath>
</defs>
</svg>
