<svg width="100" height="100" viewBox="0 0 100 100" fill="none" xmlns="http://www.w3.org/2000/svg">
<g id="004-delivery-box" clip-path="url(#clip0_131_4681)">
<g id="Group">
<g id="Group_2">
<path id="Vector" d="M21.8268 69.9889C20.9999 69.2961 19.768 69.4051 19.0754 70.2321L14.1917 76.0629L12.4266 74.5674C11.6036 73.8702 10.3713 73.9721 9.67388 74.7952C8.97661 75.6182 9.07857 76.8506 9.90161 77.5479L13.1653 80.3129C13.5194 80.6129 13.9672 80.7758 14.4278 80.7758C14.4833 80.7758 14.5387 80.7735 14.5944 80.7686C15.1124 80.7243 15.5915 80.4754 15.9252 80.0768L22.0704 72.7403C22.7625 71.9133 22.6536 70.6817 21.8268 69.9889Z" fill="#3BB77E"/>
<g id="Vector 18">
<path d="M62.4219 31.7969V37.5781C62.4219 38.3008 59.5313 40.4687 58.8087 40.4687H45.8009C44.5964 40.2279 42.1876 40.1797 42.1876 41.9141V46.9726L39.297 47.6953C38.5743 48.1771 37.129 49.2851 37.129 49.8633C37.129 50.5859 36.4063 52.0312 37.129 52.7539C37.8516 53.4766 39.2969 54.1992 40.0195 54.9219C40.7422 55.6445 42.1876 54.9219 42.1876 55.6445V58.5351C42.1876 59.1133 42.6693 60.7031 42.9102 61.4258C43.3919 61.9075 44.4999 62.8711 45.0781 62.8711C45.6563 62.8711 46.7643 63.3529 47.2461 63.5937V65.7617C47.2461 66.3398 48.2096 67.9297 48.6914 68.6523C49.4141 69.1341 51.1484 70.0976 52.3047 70.0976C53.75 70.0976 66.0352 71.543 68.2031 71.543C69.9375 71.543 75.6706 70.5794 78.3203 70.0976L83.3789 66.4844L90.6055 65.0391H94.9414L97.832 63.5937V59.9805L98.5547 44.8047L97.1094 41.9141H92.0508C91.4727 41.9141 88.9193 39.987 87.7148 39.0234C86.7513 38.3008 84.8242 36.7109 84.8242 36.1328C84.8242 35.5547 80.4883 33.4831 78.3203 32.5195L75.4297 31.7969H68.2031H64.5898H62.4219Z" fill="#FDC040"/>
<path d="M36.4062 11.5625V28.9062L42.1876 26.7383L44.3555 25.293L51.582 28.9062L53.75 26.7383L53.0273 13.0078L50.8594 11.5625H43.6328H36.4062Z" fill="#FDC040"/>
<path d="M62.422 31.7969C62.422 33.4831 62.422 37 62.422 37.5781M62.422 31.7969V37.5781M62.422 31.7969H64.5898M62.422 37.5781C62.422 38.3008 59.5313 40.4687 58.8087 40.4687M58.8087 40.4687C58.2305 40.4687 49.8959 40.4687 45.8009 40.4687M58.8087 40.4687H45.8009M45.8009 40.4687C44.5964 40.2279 42.1876 40.1797 42.1876 41.9141M42.1876 41.9141C42.1876 43.6484 42.1876 46.0091 42.1876 46.9726M42.1876 41.9141V46.9726M42.1876 46.9726L39.297 47.6953C38.5743 48.1771 37.129 49.2851 37.129 49.8633C37.129 50.5859 36.4063 52.0312 37.129 52.7539C37.8516 53.4766 39.2969 54.1992 40.0195 54.9219C40.7422 55.6445 42.1876 54.9219 42.1876 55.6445M42.1876 55.6445C42.1876 56.3672 42.1876 57.8125 42.1876 58.5351M42.1876 55.6445V58.5351M42.1876 58.5351C42.1876 59.1133 42.6693 60.7031 42.9102 61.4258C43.3919 61.9075 44.4999 62.8711 45.0781 62.8711C45.6563 62.8711 46.7643 63.3529 47.2461 63.5937M47.2461 63.5937C47.2461 64.0755 47.2461 65.1836 47.2461 65.7617M47.2461 63.5937V65.7617M47.2461 65.7617C47.2461 66.3398 48.2096 67.9297 48.6914 68.6523C49.4141 69.1341 51.1484 70.0976 52.3047 70.0976C53.75 70.0976 66.0352 71.543 68.2031 71.543C69.9375 71.543 75.6706 70.5794 78.3203 70.0976L83.3789 66.4844L90.6055 65.039H94.9414L97.832 63.5937V59.9805L98.5547 44.8047L97.1094 41.9141M97.1094 41.9141C95.6641 41.9141 92.6289 41.9141 92.0508 41.9141M97.1094 41.9141H92.0508M92.0508 41.9141C91.4727 41.9141 88.9193 39.987 87.7148 39.0234C86.7513 38.3008 84.8242 36.7109 84.8242 36.1328C84.8242 35.5547 80.4883 33.4831 78.3203 32.5195L75.4297 31.7969H68.2031H64.5898M64.5898 31.7969H61.6992M36.4062 11.5625C36.4062 12.1406 36.4062 23.3659 36.4062 28.9062M36.4062 11.5625H43.6328H50.8594L53.0273 13.0078L53.75 26.7383L51.582 28.9062L44.3555 25.293L42.1876 26.7383L36.4062 28.9062M36.4062 11.5625V28.9062" stroke="black" stroke-linecap="round" stroke-linejoin="round"/>
</g>
<path id="Vector_2" d="M95.8637 39.8652H93.0566C90.7055 39.7566 88.8147 37.7541 86.627 35.4369C85.165 33.8887 83.5998 32.2309 81.7143 31.0021V14.3061C81.7143 11.3652 79.3217 8.97266 76.3811 8.97266H12.6752C9.73438 8.97266 7.34199 11.3652 7.34199 14.3061V27.8545C7.34199 28.9332 8.21641 29.8076 9.29512 29.8076C10.3738 29.8076 11.2482 28.9332 11.2482 27.8545V14.3061C11.2482 13.5326 11.9018 12.8789 12.6752 12.8789H34.2883V30.1596C34.2883 30.8695 34.6736 31.5236 35.2945 31.868C35.5895 32.0314 35.9156 32.1127 36.2412 32.1127C36.6012 32.1127 36.9604 32.0133 37.2766 31.8158L44.5305 27.282L51.7791 31.8156C52.3813 32.192 53.14 32.2123 53.7613 31.8682C54.3826 31.524 54.768 30.8699 54.768 30.1598V12.8789H76.3812C77.1547 12.8789 77.8082 13.5324 77.8082 14.3061V29.3463C77.1729 29.2133 76.5059 29.1334 75.8006 29.1209C75.7891 29.1207 75.7777 29.1207 75.7662 29.1207H70.8182H66.975H64.7615C64.7514 29.1207 64.7414 29.1207 64.7313 29.1209C62.3768 29.1574 61.167 30.2248 60.5666 31.1137C59.6348 32.4934 59.5484 34.3619 60.3227 36.373C60.5029 36.8426 60.7227 37.2867 60.9758 37.7041H46.1654C42.9834 37.7041 40.3945 40.293 40.3945 43.475C40.3945 44.1293 40.5039 44.7586 40.7049 45.3453H40.1865C37.0045 45.3453 34.4156 47.9342 34.4156 51.1164C34.4156 54.2986 37.0045 56.8875 40.1865 56.8875H40.7035C40.5033 57.4727 40.3943 58.1 40.3943 58.7523C40.3943 61.835 42.8189 64.3611 45.8594 64.5209C45.6572 65.1084 45.5475 65.7383 45.5475 66.3937C45.5475 69.576 48.1363 72.1648 51.3184 72.1648H75.5164C76.3498 72.1648 77.1084 72.0629 77.8076 71.8883V78.0082C77.8076 78.7848 77.1541 79.4406 76.3807 79.4406H31.1404C31.5236 78.0762 31.733 76.6396 31.733 75.1543C31.733 66.4051 24.6152 59.2871 15.8662 59.2871C14.2602 59.2871 12.7098 59.5289 11.2477 59.9748V45.4145C11.2477 44.3357 10.3732 43.4613 9.29453 43.4613C8.21582 43.4613 7.34141 44.3357 7.34141 45.4145V61.7822C2.93184 64.6041 0 69.5418 0 75.1545C0 83.9068 7.11777 91.0273 15.8668 91.0273C21.6213 91.0273 26.6695 87.9463 29.4516 83.3471H76.3812C79.3219 83.3471 81.7145 80.9521 81.7145 78.0084V69.9668C82.1457 69.6586 82.558 69.3424 82.9578 69.0342C84.6826 67.7051 86.1721 66.5572 88.5439 66.5572H95.8639C98.1445 66.5572 100 64.7041 100 62.4264V44.0018C100 41.7207 98.1445 39.8652 95.8637 39.8652ZM50.8617 26.6344L45.5666 23.3225C44.9332 22.9266 44.1295 22.9264 43.4957 23.3223L38.1945 26.6355V12.8789H50.8617V26.6344ZM15.8668 87.1211C9.27168 87.1211 3.90625 81.7529 3.90625 75.1545C3.90625 68.5592 9.27168 63.1936 15.8668 63.1936C22.4619 63.1936 27.8273 68.5592 27.8273 75.1545C27.8273 81.7529 22.4619 87.1211 15.8668 87.1211ZM96.0938 62.4264C96.0938 62.5461 95.9863 62.651 95.8637 62.651H88.5437C84.8412 62.651 82.5738 64.3982 80.5732 65.94C78.8922 67.2355 77.5645 68.2588 75.5166 68.2588H51.3188C50.2906 68.2588 49.4541 67.4223 49.4541 66.3939C49.4541 65.3656 50.2906 64.5291 51.3188 64.5291H57.802C58.8807 64.5291 59.7551 63.6547 59.7551 62.576C59.7551 61.4973 58.8807 60.6229 57.802 60.6229H46.1656C45.1373 60.6229 44.301 59.784 44.301 58.7525C44.301 57.7242 45.1375 56.8877 46.1656 56.8877H57.802C58.8807 56.8877 59.7551 56.0133 59.7551 54.9346C59.7551 53.8559 58.8807 52.9814 57.802 52.9814H40.1867C39.1586 52.9814 38.3221 52.1449 38.3221 51.1166C38.3221 50.0883 39.1586 49.2518 40.1867 49.2518H57.802C58.8807 49.2518 59.7551 48.3773 59.7551 47.2986C59.7551 46.2199 58.8807 45.3455 57.802 45.3455H46.1656C45.1373 45.3455 44.301 44.5064 44.301 43.4752C44.301 42.4469 45.1375 41.6105 46.1656 41.6105H67.9588H72.1977H75.0293C76.108 41.6105 76.9824 40.7361 76.9824 39.6574C76.9824 38.5787 76.108 37.7043 75.0293 37.7043H72.1977H67.9588C66.1723 37.7043 64.6064 36.6322 63.9689 34.9717C63.5975 34.0064 63.6986 33.4561 63.8041 33.2998C63.91 33.1432 64.2914 33.0363 64.7781 33.0271H70.8182H75.7482C79.0418 33.093 81.3469 35.5344 83.7871 38.1187C86.3398 40.8225 88.9793 43.6182 92.941 43.7701C92.9658 43.7711 92.9908 43.7715 93.0158 43.7715H95.8641C95.9887 43.7715 96.0941 43.877 96.0941 44.0016V62.4264H96.0938Z" fill="#3BB77E"/>
<path id="Vector_3" d="M9.29492 38.5903C10.3736 38.5903 11.248 37.7104 11.248 36.6317C11.248 35.553 10.3736 34.6786 9.29492 34.6786C8.21621 34.6786 7.3418 35.553 7.3418 36.6317V36.6428C7.3418 37.7214 8.21621 38.5903 9.29492 38.5903Z" fill="#3BB77E"/>
</g>
</g>
</g>
<defs>
<clipPath id="clip0_131_4681">
<rect width="100" height="100" fill="white"/>
</clipPath>
</defs>
</svg>
