<svg width="30" height="30" viewBox="0 0 30 30" fill="none" xmlns="http://www.w3.org/2000/svg">
<g id="004-drinks 1" clip-path="url(#clip0_3374_4471)">
<g id="Group">
<path id="Vector 3" d="M23.5983 13.3125H13.0244V14.0625L13.2007 14.4375L14.0818 15.375L14.7867 15.75L15.1392 16.3125L14.963 17.0625L13.7293 17.625L13.0244 18.9375L12.8482 22.875L13.3769 27.1875L13.7293 28.5L14.4343 29.25C14.6105 29.3125 15.0335 29.4375 15.3154 29.4375C15.6679 29.4375 17.254 29.625 17.6064 29.625H19.545H20.7786L20.4261 28.875C20.3087 28.5625 20.0737 27.825 20.0737 27.375C20.0737 26.925 19.9562 25.6875 19.8975 25.125V22.3125C19.8975 22.0125 20.2499 19.8125 20.4261 18.75V18.1875C20.4261 18 20.9548 18 21.1311 17.8125C21.3073 17.625 21.836 17.625 22.0122 17.625C22.1885 17.625 22.7172 17.4375 22.8934 17.4375C23.0696 17.4375 22.7172 17.25 22.5409 17.0625C22.3647 16.875 22.5409 16.875 22.5409 16.6875C22.5409 16.5 22.5409 16.125 22.3647 15.9375C22.2237 15.7875 22.6584 15.5 22.8934 15.375C23.0696 15.3125 23.4221 15.15 23.4221 15C23.4221 14.85 23.7745 14.6875 23.9508 14.625L24.3032 14.0625V13.5L23.5983 13.3125Z" fill="#FDC040"/>
<path id="Vector" d="M3.52819 23.0973C3.52819 24.0366 4.24639 24.8007 5.12914 24.8007C6.01195 24.8007 6.73015 24.0366 6.73015 23.0973C6.73015 22.1581 6.01195 21.394 5.12914 21.394C4.24639 21.394 3.52819 22.1581 3.52819 23.0973ZM5.90412 23.0973C5.90412 23.552 5.5565 23.9218 5.1292 23.9218C4.70189 23.9218 4.35433 23.552 4.35433 23.0973C4.35433 22.6427 4.70195 22.2729 5.1292 22.2729C5.55645 22.2729 5.90412 22.6428 5.90412 23.0973Z" fill="#3BB77E"/>
<path id="Vector_2" d="M7.16446 20.7492C7.85948 20.7492 8.42496 20.1477 8.42496 19.4082C8.42496 18.6688 7.85948 18.0672 7.16446 18.0672C6.46945 18.0672 5.90402 18.6688 5.90402 19.4082C5.90402 20.1477 6.46945 20.7492 7.16446 20.7492ZM7.16446 18.946C7.40403 18.946 7.59888 19.1533 7.59888 19.4081C7.59888 19.663 7.40403 19.8703 7.16446 19.8703C6.92495 19.8703 6.73011 19.663 6.73011 19.4081C6.73011 19.1533 6.92501 18.946 7.16446 18.946Z" fill="#3BB77E"/>
<path id="Vector_3" d="M11.56 26.249C11.56 25.5096 10.9945 24.908 10.2995 24.908C9.60446 24.908 9.03898 25.5096 9.03898 26.249C9.03898 26.9885 9.60446 27.5901 10.2995 27.5901C10.9945 27.5901 11.56 26.9885 11.56 26.249ZM9.86512 26.249C9.86512 25.9942 10.06 25.7869 10.2995 25.7869C10.5391 25.7869 10.7339 25.9942 10.7339 26.249C10.7339 26.5038 10.5391 26.7112 10.2995 26.7112C10.06 26.7112 9.86512 26.5038 9.86512 26.249Z" fill="#3BB77E"/>
<path id="Vector_4" d="M28.1797 18.8348C28.0608 17.9143 27.3133 17.2201 26.4412 17.2201H26.1486L26.4305 16.4401C26.5124 16.2136 26.4061 15.9593 26.1932 15.8722C25.9802 15.785 25.7412 15.8982 25.6595 16.1246L25.2635 17.2201H23.5447C23.4865 17.1904 23.4275 17.1625 23.3675 17.1387C22.9381 16.9684 22.7204 16.7031 22.7204 16.3505C22.7204 16.0218 23.2427 15.7552 23.4676 15.6557C24.1349 15.3594 24.6132 14.7328 24.747 13.9792C25.0243 12.4143 25.1502 10.7399 25.2006 9.88055C25.2263 9.4343 25.1313 8.99771 24.9261 8.61803C23.8477 6.62326 21.8944 5.265 21.2412 4.84922V3.44391H21.2627C21.4909 3.44391 21.6757 3.24715 21.6757 3.00445V1.42424C21.6757 0.638906 21.0752 0 20.337 0H17.0659C16.3278 0 15.7272 0.638906 15.7272 1.42424V3.00445C15.7272 3.24715 15.9121 3.44391 16.1403 3.44391H16.1619V4.84904C15.7403 5.11734 14.7771 5.77869 13.8571 6.74982V6.4415C14.3276 6.17068 14.6479 5.64088 14.6479 5.03291C14.6479 4.15043 13.9731 3.43254 13.1437 3.43254H6.61732C5.78787 3.43254 5.11313 4.15049 5.11313 5.03291C5.11313 5.641 5.43359 6.17092 5.90424 6.44168V7.78623C5.33887 8.13715 3.80295 9.18023 2.44994 10.9095C2.20685 11.2211 2.05193 11.5991 2.00192 12.003C1.93468 12.5465 1.8339 13.4338 1.73576 14.5743C1.71494 14.816 1.88225 15.0299 2.10943 15.052C2.1222 15.0533 2.13492 15.0539 2.14754 15.0539C2.35863 15.0539 2.53877 14.8826 2.55837 14.6545C2.6553 13.5283 2.7546 12.6533 2.8209 12.1178C2.84249 11.9435 2.89724 11.7778 2.9805 11.6296H12.3408C12.4137 12.3606 12.5155 13.1843 12.6559 13.9789C12.7891 14.7325 13.2675 15.3594 13.9358 15.6558C14.1602 15.7551 14.6821 16.0216 14.6821 16.3504C14.6821 16.7033 14.4646 16.9685 14.0353 17.1387C13.2646 17.445 12.7212 18.2005 12.6509 19.0634C12.4884 21.0537 12.3677 24.9052 13.3866 28.3368C13.4724 28.6259 13.6063 28.8872 13.7768 29.1128C13.6975 29.118 13.618 29.1212 13.5382 29.1212H6.22245C4.22553 29.1212 2.5467 27.4644 2.40043 25.3495C2.21153 22.6177 2.22062 19.6053 2.42752 16.396C2.44311 16.1538 2.27128 15.9441 2.04372 15.9275C1.81633 15.9107 1.61895 16.0937 1.60337 16.3358C1.39382 19.5865 1.38478 22.6408 1.5766 25.4139C1.66306 26.6648 2.1873 27.8237 3.0527 28.6774C3.91734 29.5303 5.04307 30 6.22245 30H13.5383C13.9374 30 14.3325 29.9461 14.7152 29.8402C14.9684 29.9436 15.2427 29.9997 15.5275 29.9997L26.4412 30C27.3133 30 28.0608 29.3058 28.1797 28.3852C28.5891 25.2166 28.5891 22.0035 28.1797 18.8348ZM27.6222 25.2708C27.2932 25.4849 26.9189 25.5976 26.5287 25.5976C25.3711 25.5976 24.4294 24.5958 24.4294 23.3646C24.4294 22.133 25.3712 21.131 26.5287 21.131C26.9082 21.131 27.2732 21.2376 27.595 21.4403C27.6712 22.7158 27.6805 23.9946 27.6222 25.2708ZM24.3761 9.82623C24.3367 10.4978 24.25 11.6791 24.079 12.9028H13.3242C13.1535 11.6803 13.0663 10.4984 13.0264 9.82676C13.0107 9.55254 13.0682 9.28629 13.193 9.05602C13.2434 8.96279 13.2962 8.87109 13.3509 8.78074H24.052C24.1067 8.87109 24.1596 8.96285 24.21 9.05607C24.3344 9.28623 24.3918 9.55272 24.3761 9.82623ZM6.73033 6.63334H13.031V7.60418H6.73033V6.63334ZM16.5533 1.42424C16.5533 1.12354 16.7832 0.878906 17.0659 0.878906H20.337C20.6197 0.878906 20.8497 1.12354 20.8497 1.42424V2.565H16.5533V1.42424ZM20.4151 3.44391V4.66377H16.988V3.44391H20.4151ZM16.6838 5.54268H20.7191C21.0679 5.75941 22.3785 6.61898 23.4272 7.90189H13.9756C15.0244 6.61875 16.3355 5.75912 16.6838 5.54268ZM6.61732 4.31145H13.1437C13.5176 4.31145 13.8218 4.63512 13.8218 5.03291C13.8218 5.43059 13.5179 5.75408 13.1442 5.75437H6.61677C6.24304 5.75408 5.93916 5.43053 5.93916 5.03291C5.93916 4.63512 6.24338 4.31145 6.61732 4.31145ZM3.697 10.7507C4.88898 9.45053 6.09782 8.67937 6.42352 8.4832H12.5523C12.527 8.52773 12.5017 8.57215 12.4773 8.61732C12.2715 8.99678 12.1763 9.43354 12.202 9.88131C12.2159 10.1163 12.2356 10.4127 12.2624 10.7507H3.697ZM26.4412 29.1211H21.8756V29.1208H21.586C21.1268 29.1179 20.7341 28.7513 20.6713 28.2656C20.6062 27.7618 20.5516 27.2549 20.5087 26.7588C20.4878 26.5171 20.2868 26.3389 20.0596 26.3614C19.8324 26.3836 19.6652 26.5975 19.6861 26.8392C19.7301 27.3483 19.7862 27.8684 19.8529 28.3852C19.8876 28.6536 19.976 28.9025 20.105 29.1207H15.5275C14.9043 29.1207 14.3606 28.6993 14.1745 28.072C13.1986 24.7853 13.3167 21.0647 13.4739 19.1392C13.5168 18.6124 13.8507 18.1503 14.3241 17.9621C15.0766 17.6636 15.5081 17.0762 15.5081 16.3504C15.5081 15.9167 15.2904 15.3033 14.2534 14.8444C13.8431 14.6624 13.5494 14.2781 13.4678 13.8164C13.4658 13.8049 13.4638 13.7932 13.4618 13.7817H23.9413C23.9393 13.7931 23.9373 13.8046 23.9353 13.8161C23.8532 14.278 23.5594 14.6624 23.1498 14.8443C22.112 15.3036 21.8942 15.9168 21.8942 16.3504C21.8942 16.6719 21.9793 16.966 22.1391 17.2201H21.5914C20.7192 17.2201 19.9718 17.9143 19.8528 18.8348C19.5862 20.8945 19.4926 22.9932 19.5745 25.0725C19.584 25.315 19.7788 25.503 20.0044 25.4931C20.2324 25.483 20.4094 25.2782 20.3998 25.0357C20.32 23.0087 20.4113 20.9627 20.6712 18.9546C20.7343 18.4669 21.1299 18.099 21.5914 18.099H26.4412C26.9027 18.099 27.2983 18.4669 27.3614 18.9545C27.4251 19.4471 27.4774 19.941 27.5207 20.4354C27.2057 20.3146 26.8714 20.2521 26.5287 20.2521C24.9156 20.2521 23.6033 21.6483 23.6033 23.3646C23.6033 25.0805 24.9156 26.4765 26.5287 26.4765C26.8864 26.4765 27.2346 26.4086 27.5617 26.2771C27.5128 26.9413 27.4468 27.6044 27.3614 28.2654C27.2983 28.7532 26.9027 29.1211 26.4412 29.1211Z" fill="#3BB77E"/>
</g>
</g>
<defs>
<clipPath id="clip0_3374_4471">
<rect width="28.197" height="30" fill="white" transform="translate(0.864471)"/>
</clipPath>
</defs>
</svg>
