<svg width="31" height="31" viewBox="0 0 31 31" fill="none" xmlns="http://www.w3.org/2000/svg">
<g id="044-dress 1" clip-path="url(#clip0_3374_4439)">
<g id="Group">
<path id="Vector 5" d="M9.20288 21.8596C8.30288 21.7096 7.82788 22.0471 7.70288 22.2346L7.51538 22.4221C7.32788 22.6721 6.95288 23.2096 6.95288 23.3596V24.4846C6.95288 24.6721 6.95288 25.2346 7.14038 25.6096C7.32788 25.9846 7.32788 26.1721 7.51538 26.3596C7.70288 26.5471 7.89038 26.7346 8.07788 26.7346C8.26538 26.7346 9.20288 26.9221 9.39038 26.9221H11.4529C12.0154 26.9221 12.2029 26.7346 12.5779 26.7346C12.9529 26.7346 13.3279 26.5471 13.3279 26.3596C13.3279 26.1721 13.5154 25.9846 13.7029 25.7971C13.8904 25.6096 13.7029 25.2346 13.8904 24.9254C14.0779 24.6162 13.8904 24.4846 13.8904 24.2971V23.3596C13.8904 23.1721 13.7029 22.9846 13.7029 22.7971C13.7029 22.6096 13.3279 22.4221 13.1404 22.2346C12.9904 22.0846 12.5779 21.9221 12.3904 21.8596C11.7029 21.9221 10.1029 22.0096 9.20288 21.8596Z" fill="#FDC040"/>
<path id="Vector 4" d="M25.8904 12.1096C23.1904 13.1596 18.0154 12.5471 15.7654 12.1096L15.2029 12.4846L14.2654 13.9846L13.7029 15.2971C14.3029 15.4471 16.0779 16.9846 16.8904 17.7346L17.4529 18.8596C18.8029 19.0096 19.1404 20.1721 19.1404 20.7346L19.3279 24.6721C21.8779 25.4221 27.7654 24.2346 30.3904 23.5471C30.5404 23.2471 29.9529 20.0471 29.6404 18.4846C28.8904 16.2346 26.8279 13.2971 25.8904 12.1096Z" fill="#FDC040"/>
<path id="Vector" d="M28.551 15.0788C27.6554 13.4421 26.7652 12.3844 26.4445 12.0263V9.61048L30.6048 6.19439C30.7038 6.113 30.7625 5.99247 30.7653 5.86426C30.7681 5.73605 30.7147 5.61306 30.6192 5.52751L27.4715 2.70611C27.2907 2.54415 27.0129 2.55938 26.8509 2.74003C26.6888 2.92074 26.7041 3.19861 26.8848 3.36062L29.6512 5.84017L26.4447 8.47307V6.67581C26.4447 6.43311 26.248 6.23634 26.0052 6.23634C25.7624 6.23634 25.5657 6.43311 25.5657 6.67581L25.5655 11.8262C22.4276 12.3341 19.2518 12.334 16.114 11.8261V6.67581C16.114 6.43311 15.9173 6.23634 15.6745 6.23634C15.4317 6.23634 15.235 6.43311 15.235 6.67581V8.47325L12.0283 5.84017L15.4493 2.77343C15.9526 2.32213 16.6025 2.13456 17.228 2.20886C17.3568 2.76212 17.6526 3.92262 18.1068 5.07872C18.8532 6.97846 19.7238 8.11417 20.6944 8.4542C20.7415 8.47067 20.7906 8.47893 20.8397 8.47893C20.8888 8.47893 20.9379 8.47067 20.9849 8.4542C21.9555 8.11417 22.8262 6.97846 23.5728 5.07878C24.0262 3.92485 24.3217 2.7674 24.451 2.21279C24.8382 2.1665 25.2381 2.21829 25.6098 2.37744C25.8331 2.47301 26.0913 2.36947 26.1868 2.1464C26.2824 1.92326 26.1789 1.66497 25.9558 1.56946C24.8268 1.0861 23.5107 1.30812 22.6024 2.13485L22.1968 2.50401C21.4231 3.20857 20.2566 3.20857 19.4831 2.50401L19.0776 2.13485C17.8802 1.04473 16.068 1.03799 14.8625 2.11909L11.0602 5.52762C10.9647 5.61317 10.9113 5.73623 10.9142 5.86437C10.9169 5.99258 10.9756 6.11311 11.0746 6.1945L15.2349 9.6106V12.026C14.9468 12.3467 14.2064 13.2223 13.4172 14.5649C12.7489 14.2088 12.042 13.8572 11.326 13.5012C10.7003 13.1901 10.0701 12.8767 9.46519 12.5584C10.0564 11.8181 10.5125 10.98 10.7123 9.99756C11.0177 8.49616 10.571 7.15501 9.48669 6.31797C8.45874 5.52446 7.04312 5.34756 5.96396 5.87779C5.3855 6.16198 4.41509 6.89959 4.41509 8.64599C4.41509 9.75146 5.11713 10.7965 6.56146 11.8409C7.01324 12.1676 7.52115 12.484 8.06175 12.7928C7.39153 13.452 6.62234 14.0388 5.89569 14.593C4.33124 15.7863 2.84694 16.9193 2.80856 18.4458C1.85145 18.6753 1.11297 19.4734 0.984406 20.4787C0.692128 22.7675 0.692128 25.0884 0.984406 27.3773C1.13207 28.5314 2.08396 29.4134 3.24791 29.4744C5.58168 29.5961 7.93185 29.6569 10.2821 29.6569C12.6322 29.6569 14.9826 29.596 17.3164 29.4744C18.4807 29.4133 19.4323 28.5313 19.5792 27.3773C19.6668 26.693 19.7275 26.0058 19.7627 25.3175C20.1203 25.3282 20.4808 25.334 20.8397 25.334C26.5768 25.334 30.3199 23.9916 30.4765 23.9345C30.6499 23.8711 30.7653 23.7062 30.7653 23.5216C30.7654 19.8886 29.5612 16.9251 28.551 15.0788ZM18.8914 3.1536C20.0019 4.1655 21.6775 4.1655 22.7887 3.15372L23.1942 2.78463C23.2766 2.70962 23.3637 2.64159 23.4546 2.58054C23.3019 3.16275 23.0678 3.96112 22.7549 4.75714C22.0224 6.62126 21.3307 7.31978 20.8399 7.56302C20.3491 7.31978 19.6574 6.62126 18.925 4.75714C18.6122 3.961 18.378 3.1621 18.2254 2.57966C18.3158 2.64077 18.403 2.70898 18.4861 2.78457L18.8914 3.1536ZM5.29426 8.64575C5.29426 7.69075 5.6599 7.00629 6.35174 6.66638C6.64109 6.52422 6.97175 6.45526 7.31208 6.45526C7.88081 6.45526 8.47638 6.64798 8.94983 7.01344C9.42522 7.38037 10.1744 8.23324 9.85128 9.82207C9.67414 10.693 9.24076 11.4507 8.6752 12.13C6.7758 11.0657 5.29426 9.93563 5.29426 8.64575ZM3.29373 19.2597C4.0771 19.219 4.86077 19.185 5.62299 19.1586C5.86557 19.1502 6.05537 18.9468 6.04693 18.7042C6.03849 18.4616 5.83663 18.2726 5.59252 18.2802C4.97093 18.3017 4.3351 18.3285 3.69687 18.3596C3.81008 17.29 5.03415 16.3554 6.42892 15.2917C7.24826 14.6667 8.11806 14.0032 8.86569 13.235C9.53914 13.5939 10.2423 13.9436 10.9348 14.288C11.628 14.6327 12.3268 14.9802 12.9896 15.3338C12.5543 16.161 12.1261 17.1237 11.7717 18.2082C10.2933 18.1917 8.81741 18.1981 7.35251 18.2302C7.1098 18.2356 6.91743 18.4366 6.92276 18.6793C6.9281 18.922 7.12808 19.1163 7.37173 19.109C10.6478 19.0371 13.9784 19.0878 17.2708 19.2597C18.0101 19.298 18.6143 19.8573 18.7076 20.5899C18.7693 21.0722 18.8168 21.556 18.8516 22.0407C18.8161 22.527 18.7678 23.0099 18.7076 23.477C18.6144 24.209 18.01 24.768 17.2701 24.8064C16.275 24.8584 15.2754 24.8989 14.2899 24.9285C14.311 24.3079 14.2973 23.6847 14.2476 23.0676C14.1804 22.233 13.5033 21.5693 12.6727 21.5239C11.2507 21.4461 9.80862 21.446 8.3869 21.5239C7.5563 21.5693 6.87928 22.233 6.81202 23.0676C6.76192 23.6894 6.74838 24.3174 6.77018 24.9427C5.61285 24.9119 4.44608 24.8668 3.29373 24.8064C2.55413 24.7681 1.94966 24.209 1.85649 23.4768C1.79754 23.0152 1.7492 22.534 1.7124 22.046C1.74721 21.5596 1.79467 21.074 1.85649 20.5899C1.95013 19.8575 2.5546 19.298 3.29373 19.2597ZM13.763 15.7602C15.1867 16.5749 16.3371 17.4272 16.7237 18.3538C15.3838 18.2898 14.039 18.2454 12.6945 18.2213C13.0114 17.3039 13.3841 16.479 13.763 15.7602ZM13.3714 25.6088C13.3393 26.0073 13.0183 26.324 12.6247 26.3456C12.6246 26.3456 12.6246 26.3456 12.6246 26.3456C11.2346 26.4216 9.82503 26.4216 8.43483 26.3456C8.04124 26.324 7.7202 26.0073 7.68809 25.6088C7.62205 24.7891 7.62205 23.9579 7.68809 23.1383C7.7202 22.7397 8.04124 22.423 8.43489 22.4015C9.1299 22.3634 9.82983 22.3444 10.5298 22.3444C11.2297 22.3444 11.9296 22.3634 12.6247 22.4015C13.0183 22.423 13.3393 22.7397 13.3714 23.1383C13.4375 23.9579 13.4375 24.7891 13.3714 25.6088ZM17.2707 28.5964C12.6335 28.8382 7.93108 28.8382 3.29403 28.5964C2.55478 28.5576 1.95013 27.998 1.85649 27.2657C1.75957 26.5066 1.69664 25.7439 1.66617 24.98C2.07552 25.3905 2.63201 25.6523 3.24803 25.6842C4.43524 25.7464 5.63799 25.7926 6.83012 25.8236C6.95898 26.5893 7.60476 27.1804 8.38684 27.2232C9.09785 27.2621 9.81383 27.2816 10.5298 27.2816C11.2457 27.2816 11.9617 27.2621 12.6726 27.2232C13.4595 27.1802 14.1082 26.5821 14.2315 25.8096C15.2508 25.7796 16.2858 25.738 17.3157 25.6842C17.9321 25.6523 18.4888 25.3903 18.8982 24.9798C18.8677 25.7437 18.8046 26.5066 18.7075 27.2659C18.6143 27.9981 18.01 28.5576 17.2707 28.5964ZM28.4441 23.5985C28.3537 22.2773 28.1866 20.9609 27.9458 19.678C27.901 19.4395 27.6716 19.2825 27.4328 19.3272C27.1942 19.372 27.0371 19.6017 27.082 19.8402C27.3245 21.1323 27.4896 22.4596 27.5753 23.791C27.237 23.8603 26.8533 23.9323 26.4286 24.0024C26.3755 22.235 26.1869 20.4752 25.8659 18.7638C25.8211 18.5253 25.5914 18.3683 25.3529 18.4129C25.1144 18.4577 24.9573 18.6873 25.002 18.9258C25.321 20.6267 25.5061 22.377 25.5534 24.1346C24.243 24.3144 22.6427 24.4549 20.8397 24.4549C20.4911 24.4549 20.1409 24.4494 19.7936 24.439C19.8184 23.1164 19.7473 21.7922 19.5793 20.4788C19.4475 19.4439 18.6691 18.6288 17.6709 18.4272C17.3482 17.0843 15.9695 16.0056 14.1923 14.9914C14.8947 13.8026 15.5519 13.0006 15.8388 12.6716C17.4987 12.9478 19.1693 13.0863 20.84 13.0863C22.5105 13.0863 24.181 12.9479 25.8408 12.6717C26.1706 13.0488 26.9869 14.0458 27.7942 15.5272C28.7192 17.2245 29.8164 19.9148 29.8831 23.2056C29.5973 23.2958 29.1072 23.4401 28.4441 23.5985Z" fill="#3BB77E"/>
<path id="Vector_2" d="M12.2933 23.068C11.7062 23.0405 11.113 23.0266 10.5297 23.0266C9.94648 23.0266 9.35314 23.0405 8.76612 23.068C8.54193 23.0785 8.36169 23.2562 8.34798 23.4803C8.31194 24.0729 8.31194 24.674 8.34798 25.2667C8.36163 25.4907 8.54193 25.6685 8.76612 25.679C9.35267 25.7064 9.94607 25.7203 10.5297 25.7203C11.1134 25.7203 11.7067 25.7064 12.2933 25.679C12.5174 25.6685 12.6977 25.4907 12.7114 25.2667C12.7474 24.674 12.7474 24.073 12.7114 23.4803C12.6977 23.2562 12.5175 23.0785 12.2933 23.068ZM11.8524 24.8175C10.9691 24.8492 10.0903 24.8492 9.20706 24.8175C9.19762 24.5219 9.19762 24.2251 9.20706 23.9295C10.0909 23.8977 10.9686 23.8977 11.8524 23.9295C11.8619 24.2251 11.8619 24.5219 11.8524 24.8175Z" fill="#3BB77E"/>
</g>
</g>
<defs>
<clipPath id="clip0_3374_4439">
<rect width="30" height="30" fill="white" transform="translate(0.765381 0.484619)"/>
</clipPath>
</defs>
</svg>
