<svg width="31" height="31" viewBox="0 0 31 31" fill="none" xmlns="http://www.w3.org/2000/svg">
<g id="021-pet food 1" clip-path="url(#clip0_3374_4448)">
<g id="Group">
<ellipse id="Ellipse 3" cx="11.5522" cy="13.2048" rx="7.125" ry="6.75" fill="#FDC040"/>
<path id="Vector" d="M11.6366 20.514C15.9213 20.514 19.4071 17.2896 19.4071 13.3262C19.4071 9.36276 15.9213 6.13831 11.6366 6.13831C7.35202 6.13831 3.86621 9.36276 3.86621 13.3262C3.86621 17.2896 7.35202 20.514 11.6366 20.514ZM11.6366 7.01807C15.4362 7.01807 18.5274 9.84787 18.5274 13.3262C18.5274 16.8045 15.4362 19.6343 11.6366 19.6343C7.83712 19.6343 4.74598 16.8045 4.74598 13.3262C4.74598 9.84787 7.83712 7.01807 11.6366 7.01807Z" fill="#3BB77E"/>
<path id="Vector_2" d="M14.0161 12.2109C14.0161 12.9254 14.5975 13.5068 15.3121 13.5068C16.0266 13.5068 16.608 12.9254 16.608 12.2109C16.608 11.4963 16.0266 10.915 15.3121 10.915C14.5975 10.915 14.0161 11.4963 14.0161 12.2109ZM15.312 11.7947C15.5415 11.7947 15.7282 11.9814 15.7282 12.2109C15.7282 12.4403 15.5415 12.627 15.312 12.627C15.0825 12.627 14.8959 12.4403 14.8959 12.2109C14.8959 11.9814 15.0826 11.7947 15.312 11.7947Z" fill="#3BB77E"/>
<path id="Vector_3" d="M13.2139 11.3606C13.9284 11.3606 14.5098 10.7792 14.5098 10.0647C14.5098 9.35015 13.9284 8.7688 13.2139 8.7688C12.4993 8.7688 11.918 9.35015 11.918 10.0647C11.918 10.7792 12.4993 11.3606 13.2139 11.3606ZM13.2139 9.64851C13.4433 9.64851 13.63 9.83519 13.63 10.0646C13.63 10.2941 13.4433 10.4808 13.2139 10.4808C12.9844 10.4808 12.7977 10.2941 12.7977 10.0646C12.7977 9.83519 12.9844 9.64851 13.2139 9.64851Z" fill="#3BB77E"/>
<path id="Vector_4" d="M7.96115 13.5068C8.67575 13.5068 9.2571 12.9254 9.2571 12.2109C9.2571 11.4963 8.67575 10.915 7.96115 10.915C7.2466 10.915 6.66525 11.4963 6.66525 12.2109C6.66525 12.9254 7.2466 13.5068 7.96115 13.5068ZM7.96115 11.7947C8.19065 11.7947 8.37734 11.9814 8.37734 12.2109C8.37734 12.4403 8.19065 12.627 7.96115 12.627C7.7317 12.627 7.54502 12.4403 7.54502 12.2109C7.54502 11.9814 7.7317 11.7947 7.96115 11.7947Z" fill="#3BB77E"/>
<path id="Vector_5" d="M10.0593 11.3606C10.7738 11.3606 11.3552 10.7792 11.3552 10.0647C11.3552 9.35015 10.7738 8.7688 10.0593 8.7688C9.34472 8.7688 8.76337 9.35015 8.76337 10.0647C8.76337 10.7792 9.34472 11.3606 10.0593 11.3606ZM10.0593 9.64851C10.2887 9.64851 10.4754 9.83519 10.4754 10.0646C10.4754 10.2941 10.2887 10.4808 10.0593 10.4808C9.82982 10.4808 9.64313 10.2941 9.64313 10.0646C9.64313 9.83519 9.82982 9.64851 10.0593 9.64851Z" fill="#3BB77E"/>
<path id="Vector_6" d="M9.41502 13.1181C9.3539 13.4057 9.19056 13.6687 8.94264 13.8787C8.38581 14.3504 8.09478 15.0394 8.14417 15.7691C8.22112 16.9057 9.13707 17.813 10.2747 17.8796C10.6499 17.9014 11.0265 17.8305 11.3641 17.6741C11.5347 17.5951 11.7384 17.5951 11.9089 17.6741C12.2065 17.8119 12.5344 17.8834 12.8649 17.8834C12.9093 17.8834 12.9539 17.8822 12.9984 17.8796C14.136 17.8129 15.0519 16.9056 15.1289 15.769C15.1782 15.0393 14.8872 14.3503 14.3304 13.8787C14.0825 13.6687 13.9192 13.4057 13.8581 13.1182C13.752 12.619 13.4876 12.1802 13.0933 11.8492C12.2627 11.1521 11.0103 11.1521 10.1798 11.8492C9.78552 12.1803 9.52112 12.619 9.41502 13.1181ZM10.7455 12.523C11.2534 12.0966 12.0196 12.0966 12.5276 12.523C12.7701 12.7266 12.9326 12.9956 12.9975 13.301C13.0995 13.7809 13.3637 14.2128 13.7617 14.5499C14.103 14.839 14.2814 15.2617 14.251 15.7096C14.2039 16.4052 13.6433 16.9605 12.9469 17.0013C12.7131 17.0149 12.488 16.9728 12.2787 16.8758C12.0746 16.7812 11.8555 16.734 11.6365 16.734C11.4174 16.734 11.1983 16.7813 10.9943 16.8758C10.7849 16.9728 10.56 17.0151 10.3261 17.0013C9.62968 16.9605 9.06903 16.4052 9.02194 15.7097C8.99161 15.2617 9.16997 14.839 9.51126 14.5499C9.90927 14.2128 10.1736 13.7809 10.2755 13.301C10.3405 12.9957 10.5029 12.7267 10.7455 12.523Z" fill="#3BB77E"/>
<path id="Vector_7" d="M28.9443 23.6302C29.8786 22.4382 30.3927 20.9553 30.3927 19.4358C30.3927 15.6814 27.3383 12.627 23.5839 12.627C22.882 12.627 22.1963 12.7324 21.5375 12.9403C21.4901 10.7655 21.3773 8.59356 21.1985 6.43326C21.1346 5.66587 21.302 4.91725 21.6828 4.26822C22.2003 3.38558 22.6637 2.17989 21.9322 1.44834C21.6186 1.13502 20.8148 0.680829 17.4686 0.355315C15.38 0.152148 13.0864 0.0797729 11.6364 0.0797729C10.1865 0.0797729 7.89292 0.152148 5.80418 0.355374C2.45803 0.680887 1.65427 1.13508 1.34061 1.44851C0.609169 2.17989 1.07257 3.38558 1.59011 4.26839C1.97081 4.91731 2.13826 5.66593 2.07427 6.43314C2.04946 6.7298 2.02489 7.04564 1.99709 7.42722C1.97937 7.66951 2.16149 7.8803 2.40377 7.89795C2.64612 7.91573 2.85685 7.73356 2.87451 7.49127C2.90213 7.11291 2.92641 6.79995 2.95099 6.5064C3.03011 5.55731 2.8219 4.62945 2.34899 3.82329C2.32495 3.78224 2.30242 3.74206 2.28002 3.70194C3.61175 3.14118 7.96072 2.77549 11.6365 2.77549C13.0356 2.77549 15.2557 2.84446 17.2907 3.03795C19.5381 3.25168 20.5434 3.51731 20.9916 3.70417C20.9696 3.74353 20.9475 3.78294 20.9239 3.82323C20.4509 4.62945 20.2427 5.55725 20.3217 6.50617C20.7778 12.0157 20.8018 17.6017 20.3957 23.1168C19.4519 23.1166 18.5079 23.1241 17.5689 23.1394C17.4483 21.643 16.192 20.4622 14.6651 20.4622C13.0588 20.4622 11.7519 21.7691 11.7519 23.3754C11.7519 24.0772 12.0032 24.7465 12.4533 25.271C12.3407 25.4022 12.2406 25.5425 12.1537 25.69C9.52254 25.7093 6.85703 25.5809 4.22717 25.3068C3.53961 25.2355 2.99973 24.6818 2.94342 23.9899C2.54237 19.0957 2.48084 14.1309 2.76055 9.23332C2.77439 8.9908 2.58899 8.78294 2.34647 8.76904C2.10401 8.75531 1.89609 8.94059 1.88219 9.18312C1.60014 14.1212 1.66219 19.127 2.06653 24.0614C2.15709 25.1751 3.02764 26.0669 4.13621 26.1818C6.62418 26.4411 9.14348 26.5721 11.6374 26.572C11.6963 26.572 11.755 26.5712 11.8138 26.571C11.7734 26.7651 11.7519 26.9643 11.7519 27.1665C11.7519 28.7729 13.0587 30.0797 14.6651 30.0797C16.192 30.0797 17.4483 28.899 17.5688 27.4025C19.419 27.4329 21.2882 27.4329 23.1378 27.4025C23.2584 28.899 24.5147 30.0797 26.0417 30.0797C26.5104 30.0797 26.9769 29.9655 27.3907 29.7494C27.6061 29.637 27.6895 29.3712 27.577 29.1558C27.4645 28.9405 27.1987 28.857 26.9835 28.9696C26.6908 29.1224 26.3739 29.1999 26.0417 29.1999C24.9204 29.1999 24.0082 28.2877 24.0082 27.1665C24.0082 27.1156 24.0109 27.0601 24.0167 26.9919C24.0272 26.8677 23.9845 26.745 23.8994 26.6541C23.8142 26.5632 23.6946 26.5126 23.5699 26.515C21.4359 26.5558 19.2714 26.5558 17.1369 26.515C17.0129 26.5127 16.8926 26.5632 16.8074 26.6541C16.7222 26.745 16.6796 26.8677 16.6901 26.9919C16.6959 27.0597 16.6986 27.1152 16.6986 27.1665C16.6986 28.2877 15.7864 29.1999 14.6651 29.1999C13.5439 29.1999 12.6317 28.2877 12.6317 27.1665C12.6317 26.5643 12.897 25.9962 13.3597 25.6078C13.4593 25.5242 13.5168 25.4009 13.5168 25.2709C13.5168 25.1409 13.4593 25.0176 13.3597 24.934C12.897 24.5456 12.6317 23.9775 12.6317 23.3753C12.6317 22.2541 13.5439 21.3419 14.6651 21.3419C15.7864 21.3419 16.6986 22.2541 16.6986 23.3753C16.6986 23.4266 16.6959 23.4822 16.6901 23.55C16.6796 23.6741 16.7222 23.7968 16.8074 23.8877C16.8926 23.9787 17.0128 24.0295 17.1369 24.0268C19.2713 23.9861 21.4358 23.9861 23.5699 24.0268C23.6947 24.0295 23.8142 23.9787 23.8994 23.8877C23.9845 23.7968 24.0272 23.6741 24.0167 23.55C24.0109 23.4817 24.0082 23.4262 24.0082 23.3753C24.0082 22.2541 24.9204 21.3419 26.0417 21.3419C27.1632 21.3419 28.0757 22.2541 28.0757 23.3753C28.0757 23.9777 27.8102 24.5457 27.3472 24.9338C27.2476 25.0174 27.19 25.1408 27.19 25.2709C27.19 25.401 27.2475 25.5244 27.3472 25.608C27.8102 25.9961 28.0757 26.5642 28.0757 27.1665C28.0757 27.4233 28.0285 27.6734 27.9355 27.9099C27.8465 28.136 27.9578 28.3913 28.1838 28.4803C28.4099 28.5692 28.6653 28.458 28.7542 28.232C28.8877 27.8925 28.9554 27.5341 28.9554 27.1666C28.9554 26.4646 28.7041 25.7954 28.2537 25.271C28.6493 24.8104 28.8912 24.2381 28.9443 23.6302ZM11.6366 1.89567C11.557 1.89567 4.29673 1.90834 1.92454 2.90605C1.80336 2.51532 1.81204 2.2213 1.96266 2.07068C2.08166 1.95174 2.71656 1.53966 5.8894 1.23098C7.94682 1.03086 10.2072 0.959538 11.6364 0.959538C13.0657 0.959538 15.3261 1.03086 17.3835 1.23098C20.5563 1.53966 21.1912 1.95174 21.3101 2.07056C21.4608 2.2213 21.4696 2.51526 21.3484 2.90599C18.9761 1.90839 11.7162 1.89567 11.6366 1.89567ZM26.0418 20.4622C24.5149 20.4622 23.2585 21.6429 23.138 23.1394C22.5196 23.1292 21.8988 23.1238 21.2776 23.1204C21.502 20.048 21.5947 16.9542 21.5537 13.8635C22.2021 13.6267 22.8837 13.5068 23.5839 13.5068C26.8532 13.5068 29.5129 16.1665 29.5129 19.4358C29.5129 20.4514 29.2494 21.4484 28.7593 22.3263C28.3371 21.237 27.2786 20.4622 26.0418 20.4622Z" fill="#3BB77E"/>
</g>
</g>
<defs>
<clipPath id="clip0_3374_4448">
<rect width="30" height="30" fill="white" transform="translate(0.677124 0.0797729)"/>
</clipPath>
</defs>
</svg>
