<svg width="29" height="31" viewBox="0 0 29 31" fill="none" xmlns="http://www.w3.org/2000/svg">
<g id="001-sweet 1" clip-path="url(#clip0_3374_4494)">
<g id="Group">
<rect id="Rectangle 3" x="12.4918" y="21.0966" width="11.25" height="9" rx="4.5" fill="#FDC040"/>
<path id="Vector 6" d="M1.61675 3.65906L1.99175 4.59656L3.11675 4.22156L5.36675 4.03406L8.92925 3.84656L12.6793 4.03406L19.0543 4.59656L19.6168 4.03406L19.9918 3.09656C20.0543 2.84656 20.1793 2.30906 20.1793 2.15906C20.1793 2.00906 19.6793 1.97156 19.4293 1.97156L18.8668 2.15906L18.3043 2.34656H17.1793C16.9918 2.15906 16.5793 1.78406 16.4293 1.78406C16.2793 1.78406 15.9918 1.53406 15.8668 1.40906H14.9293L14.3668 1.97156L13.6168 2.34656H12.8668L11.9293 1.78406L10.9918 1.22156L10.0543 1.40906L9.49175 1.97156L8.55425 2.34656L7.61675 2.15906C7.42925 2.09656 7.01675 1.97156 6.86675 1.97156C6.71675 1.97156 6.55425 1.59656 6.49175 1.40906H5.92925L5.17925 1.59656C5.05425 1.72156 4.76675 1.97156 4.61675 1.97156C4.42925 1.97156 4.05425 2.15906 4.05425 2.34656C4.05425 2.53406 3.49175 2.34656 3.30425 2.34656C3.11675 2.34656 2.92925 2.34656 2.74175 2.15906C2.59175 2.00906 2.30425 1.97156 2.17925 1.97156H1.42925L1.24175 2.72156L1.61675 3.65906Z" fill="#FDC040"/>
<path id="Vector" d="M10.6684 20.1091C12.6566 20.1091 14.5306 19.528 15.9454 18.4728C17.3987 17.3888 18.1991 15.9356 18.1991 14.3807C18.1991 12.8258 17.3987 11.3726 15.9454 10.2886C14.5306 9.23343 12.6566 8.65234 10.6684 8.65234C8.68027 8.65234 6.80628 9.23343 5.39151 10.2886C3.93824 11.3726 3.13783 12.8258 3.13783 14.3807C3.13783 15.9356 3.93818 17.3888 5.39151 18.4728C6.80628 19.528 8.68027 20.1091 10.6684 20.1091ZM4.01676 14.3807C4.01676 11.7067 7.0007 9.53127 10.6684 9.53127C14.3362 9.53127 17.3201 11.7067 17.3201 14.3807C17.3201 17.0547 14.3362 19.2301 10.6684 19.2301C7.0007 19.2301 4.01676 17.0547 4.01676 14.3807Z" fill="#3BB77E"/>
<path id="Vector_2" d="M27.1873 26.6114C27.5533 26.3274 27.7525 25.9769 27.7525 25.5936C27.7525 25.2105 27.5534 24.86 27.1873 24.576C27.5077 24.3538 27.7251 24.0969 27.8367 23.8076C27.9341 23.5553 27.9961 23.149 27.7389 22.6456C27.5385 22.2534 27.221 21.999 26.8208 21.9096C26.1796 21.7665 25.3305 22.0553 24.2923 22.7678C23.8019 21.4323 22.5528 20.4761 21.0558 20.4083C20.7418 20.3941 20.427 20.383 20.1118 20.3732C20.4146 15.1422 20.3186 9.84257 19.8252 4.6094C19.9876 4.34778 20.2984 3.76851 20.4935 2.90506C20.6109 2.38532 20.3897 1.87408 19.9301 1.60261C19.4775 1.33536 18.9318 1.38751 18.54 1.73556C18.3433 1.91029 18.1574 2.01857 17.839 2.01857C17.4208 2.01857 17.2341 1.83546 16.9514 1.55831C16.628 1.24114 16.2256 0.846558 15.4484 0.846558C14.6714 0.846558 14.269 1.24114 13.9457 1.55819C13.663 1.83535 13.4762 2.01846 13.0582 2.01846C12.64 2.01846 12.4534 1.83535 12.1707 1.55819C11.8473 1.24114 11.4449 0.846558 10.6678 0.846558C9.89071 0.846558 9.48834 1.24114 9.16507 1.55819C8.88241 1.83535 8.69567 2.01846 8.27759 2.01846C7.85952 2.01846 7.67283 1.83535 7.39011 1.55819C7.06685 1.24114 6.66448 0.846558 5.88739 0.846558C5.11036 0.846558 4.70805 1.24114 4.38478 1.55819C4.10212 1.83535 3.91544 2.01846 3.49748 2.01846C3.17919 2.01846 2.99333 1.91017 2.79669 1.7355C2.40504 1.38751 1.85952 1.3353 1.40676 1.60243C0.947079 1.87378 0.725942 2.38497 0.843366 2.9047C1.03849 3.76851 1.34945 4.3479 1.51188 4.60946C1.43588 5.4152 1.36767 6.23694 1.30984 7.05686C1.29273 7.29897 1.47514 7.50909 1.71725 7.52614C1.96048 7.54302 2.16949 7.36079 2.1866 7.11867C2.24044 6.35542 2.30291 5.58999 2.37281 4.83816C7.87921 4.17516 13.458 4.17516 18.9647 4.83816C19.443 9.98959 19.5323 15.2043 19.2327 20.352C17.8436 20.3276 16.4492 20.3457 15.0682 20.4082C13.5713 20.4761 12.3222 21.4322 11.8318 22.7677C10.7936 22.0552 9.94444 21.7663 9.3033 21.9095C8.90304 21.9988 8.58557 22.2533 8.38511 22.6456C8.12794 23.1489 8.18999 23.5552 8.28726 23.8074C8.36947 24.0205 8.50951 24.2158 8.70528 24.3928C6.60242 24.3334 4.47701 24.1764 2.37281 23.9228C1.90845 18.9222 1.80924 13.8581 2.07808 8.86574C2.09114 8.62339 1.90522 8.41632 1.66287 8.40331C1.41906 8.38995 1.21351 8.57616 1.20039 8.81851C0.925692 13.9194 1.03257 19.0938 1.51668 24.2012C1.35554 24.4591 1.04036 25.0412 0.843542 25.9129C0.725884 26.4328 0.947021 26.9442 1.40687 27.2157C1.85946 27.483 2.40521 27.4307 2.79669 27.0828C2.99362 26.908 3.1796 26.7998 3.4976 26.7998C3.91579 26.7998 4.10259 26.9829 4.38531 27.2601C4.7087 27.5771 5.11112 27.9717 5.88821 27.9717C6.66541 27.9717 7.06784 27.5771 7.39123 27.2601C7.67389 26.9829 7.86075 26.7998 8.27888 26.7998C8.42062 26.7998 8.53594 26.8213 8.63666 26.8597C8.47658 27.0191 8.35933 27.1926 8.28709 27.3799C8.18982 27.6321 8.12777 28.0384 8.38494 28.5418C8.58539 28.934 8.90286 29.1884 9.30312 29.2778C9.40965 29.3016 9.52186 29.3134 9.63981 29.3134C10.2316 29.3134 10.9659 29.0131 11.8314 28.4191C12.3217 29.7549 13.5709 30.7112 15.068 30.779C16.0614 30.824 17.0616 30.8465 18.062 30.8465C19.0622 30.8465 20.0625 30.824 21.0557 30.779C22.5528 30.7111 23.802 29.7549 24.2923 28.4191C25.1578 29.0131 25.8922 29.3134 26.4839 29.3134C26.6018 29.3134 26.7141 29.3015 26.8206 29.2777C27.2209 29.1884 27.5383 28.9339 27.7388 28.5417C27.9959 28.0383 27.9339 27.632 27.8366 27.3798C27.7251 27.0904 27.5077 26.8335 27.1873 26.6114ZM2.16257 3.97887C2.02739 3.72831 1.83391 3.3008 1.70067 2.71105C1.65233 2.497 1.80555 2.38766 1.8536 2.3593C1.91167 2.32502 2.06308 2.25946 2.21302 2.39264C2.47758 2.62761 2.86266 2.89738 3.49748 2.89738C4.27451 2.89738 4.67682 2.5028 5.00015 2.18574C5.28275 1.90859 5.46949 1.72548 5.88745 1.72548C6.30547 1.72548 6.49215 1.90859 6.77487 2.18574C7.09808 2.5028 7.50051 2.89738 8.27759 2.89738C9.05468 2.89738 9.45711 2.5028 9.78038 2.18574C10.063 1.90859 10.2498 1.72548 10.6678 1.72548C11.0859 1.72548 11.2726 1.90859 11.5553 2.18574C11.8787 2.5028 12.2811 2.89738 13.0582 2.89738C13.8353 2.89738 14.2376 2.5028 14.561 2.18574C14.8436 1.90859 15.0304 1.72548 15.4484 1.72548C15.8666 1.72548 16.0534 1.90859 16.336 2.18574C16.6595 2.5028 17.0619 2.89738 17.839 2.89738C18.4739 2.89738 18.859 2.62767 19.1237 2.39264C19.2735 2.25951 19.4252 2.32497 19.4833 2.35936C19.5314 2.38778 19.6847 2.49712 19.6362 2.71122C19.503 3.30116 19.3094 3.72872 19.1745 3.97881C13.5285 3.29043 7.80801 3.29043 2.16257 3.97887ZM20.53 29.9202C19.9383 29.9426 19.3448 29.9575 18.7504 29.9637C19.0132 28.0359 19.5008 26.0898 20.2035 24.171C20.2869 23.9431 20.1698 23.6907 19.9419 23.6072C19.7139 23.5238 19.4617 23.6409 19.3781 23.8688C18.639 25.887 18.13 27.9364 17.8629 29.9665C17.2721 29.9646 16.6818 29.9548 16.0929 29.9371C16.6885 25.6055 18.2772 22.2755 18.8259 21.2242C19.3789 21.2306 19.9311 21.2447 20.4817 21.2651C20.3547 21.5246 20.2051 21.843 20.0429 22.2135C19.9455 22.4358 20.0468 22.695 20.2692 22.7923C20.3265 22.8175 20.3863 22.8294 20.4452 22.8294C20.6145 22.8294 20.7758 22.731 20.848 22.566C21.0795 22.0372 21.2835 21.6201 21.429 21.3361C21.9495 21.4383 22.4152 21.6853 22.7833 22.0339C22.0852 23.5968 20.9928 26.4609 20.53 29.9202ZM6.77604 26.6324C6.49332 26.9095 6.30646 27.0927 5.88833 27.0927C5.47019 27.0927 5.28339 26.9096 5.00073 26.6324C4.67729 26.3154 4.27486 25.9208 3.49771 25.9208C2.86348 25.9208 2.47828 26.1904 2.2132 26.4255C2.06331 26.5586 1.9119 26.4932 1.85389 26.4589C1.80573 26.4304 1.65244 26.321 1.70096 26.1066C1.84417 25.4724 2.05739 25.0253 2.19251 24.7851C4.26203 25.0368 6.35246 25.1983 8.42314 25.2646C8.38945 25.3709 8.3717 25.4808 8.3717 25.5937C8.3717 25.7077 8.38974 25.8188 8.4242 25.9262C8.37715 25.923 8.3291 25.9208 8.27912 25.9208C7.50186 25.9208 7.09943 26.3154 6.77604 26.6324ZM9.49479 28.42C9.39769 28.3983 9.27271 28.3471 9.16783 28.1418C9.04917 27.9095 9.07642 27.7762 9.10736 27.6961C9.19835 27.4603 9.53024 27.2236 10.0419 27.0297C10.2143 26.9644 10.3276 26.7985 10.3257 26.6141C10.3237 26.4298 10.2069 26.2663 10.0332 26.2046C9.49549 26.0137 9.25062 25.7541 9.25062 25.5936C9.25062 25.4331 9.49555 25.1735 10.0332 24.9826C10.2069 24.9209 10.3237 24.7574 10.3257 24.573C10.3275 24.3887 10.2143 24.2228 10.0419 24.1575C9.53024 23.9636 9.19835 23.727 9.10736 23.4911C9.07648 23.411 9.04917 23.2777 9.16783 23.0455C9.27271 22.8402 9.39769 22.7889 9.49479 22.7673C9.7018 22.721 10.313 22.7271 11.6238 23.6989C11.6198 23.743 11.616 23.787 11.6136 23.8316C11.5519 25.0007 11.5519 26.1863 11.6136 27.3555C11.616 27.4 11.6198 27.4441 11.6238 27.4881C10.3131 28.46 9.70209 28.4661 9.49479 28.42ZM12.4913 23.878C12.5658 22.4647 13.6908 21.3505 15.108 21.2863C15.1225 21.2857 15.1372 21.2853 15.1517 21.2846C14.5487 22.5237 13.4228 25.129 12.7911 28.4225C12.6182 28.0869 12.5124 27.7102 12.4913 27.3094C12.4313 26.1709 12.4313 25.0164 12.4913 23.878ZM13.5256 29.3132C14.1773 25.3077 15.6451 22.2278 16.1529 21.2484C16.7151 21.232 17.2788 21.2228 17.8427 21.2209C17.149 22.6309 15.7541 25.8531 15.2104 29.9051C15.1763 29.9036 15.1421 29.9025 15.108 29.901C14.5092 29.8739 13.9629 29.6587 13.5256 29.3132ZM23.6328 27.3093C23.5656 28.5828 22.6454 29.6131 21.4271 29.8514C21.8439 26.9021 22.7249 24.414 23.381 22.8635C23.5252 23.1737 23.6137 23.5159 23.6328 23.8779C23.6928 25.0164 23.6928 26.1709 23.6328 27.3093ZM26.9563 28.1418C26.8514 28.3471 26.7264 28.3983 26.6293 28.42C26.4222 28.4661 25.8111 28.4601 24.5004 27.4883C24.5043 27.4442 24.5081 27.4001 24.5105 27.3556C24.5722 26.1864 24.5722 25.0008 24.5105 23.8317C24.5081 23.7872 24.5043 23.7431 24.5004 23.699C25.8109 22.7272 26.422 22.7211 26.6293 22.7674C26.7264 22.7891 26.8514 22.8403 26.9563 23.0455C27.075 23.2778 27.0476 23.4111 27.0167 23.4911C26.9257 23.727 26.5938 23.9637 26.0822 24.1575C25.9099 24.2228 25.7965 24.3888 25.7984 24.5731C25.8003 24.7574 25.9171 24.921 26.0909 24.9826C26.6286 25.1735 26.8735 25.4332 26.8735 25.5936C26.8735 25.7541 26.6286 26.0138 26.0909 26.2047C25.9171 26.2663 25.8003 26.4299 25.7984 26.6142C25.7965 26.7985 25.9098 26.9645 26.0822 27.0298C26.5938 27.2236 26.9257 27.4603 27.0168 27.6962C27.0476 27.7762 27.075 27.9095 26.9563 28.1418Z" fill="#3BB77E"/>
<path id="Vector_3" d="M7.72816 12.9302C9.67937 12.6711 11.6578 12.6711 13.6089 12.9302C13.6285 12.9328 13.648 12.9341 13.6673 12.9341C13.8843 12.9341 14.073 12.7734 14.1023 12.5525C14.1343 12.3119 13.9652 12.0909 13.7246 12.059C11.6969 11.7897 9.6404 11.7897 7.61243 12.059C7.37184 12.0909 7.20268 12.3119 7.23467 12.5525C7.26667 12.793 7.48757 12.9621 7.72816 12.9302Z" fill="#3BB77E"/>
<path id="Vector_4" d="M14.1023 16.3233C14.0704 16.0828 13.8493 15.9138 13.6089 15.9456C11.6578 16.2047 9.67937 16.2047 7.72816 15.9456C7.48769 15.9136 7.26661 16.0828 7.23467 16.3233C7.20268 16.5639 7.37184 16.7849 7.61243 16.8168C8.62636 16.9515 9.64738 17.0188 10.6685 17.0188C11.6896 17.0188 12.7107 16.9515 13.7245 16.8168C13.9652 16.7849 14.1343 16.5639 14.1023 16.3233Z" fill="#3BB77E"/>
<path id="Vector_5" d="M15.2928 14.4379C15.2928 14.1952 15.0961 13.9984 14.8533 13.9984H6.48366C6.2409 13.9984 6.0442 14.1952 6.0442 14.4379C6.0442 14.6806 6.2409 14.8773 6.48366 14.8773H14.8533C15.096 14.8773 15.2928 14.6806 15.2928 14.4379Z" fill="#3BB77E"/>
</g>
</g>
<defs>
<clipPath id="clip0_3374_4494">
<rect width="27.75" height="30" fill="white" transform="translate(0.491699 0.846558)"/>
</clipPath>
</defs>
</svg>
