<svg width="31" height="31" viewBox="0 0 31 31" fill="none" xmlns="http://www.w3.org/2000/svg">
<g id="006-dairy products 1" clip-path="url(#clip0_3374_4461)">
<g id="Group">
<g id="Vector 7">
<path d="M20.3638 19.4221L19.6138 21.1096L20.1763 22.2346V22.7971L20.3638 23.5471C20.6138 23.6721 21.1513 23.9221 21.3013 23.9221C21.4513 23.9221 21.8638 24.0471 22.0513 24.1096C22.0513 24.2971 22.0138 24.7096 21.8638 24.8596C21.7138 25.0096 21.4263 25.0471 21.3013 25.0471C21.1763 25.2971 20.9263 25.8346 20.9263 25.9846C20.9263 26.1721 20.7388 26.7346 20.7388 26.9221C20.7388 27.0721 20.3638 27.7346 20.1763 28.0471L20.3638 29.7346C20.9263 29.7971 22.0888 29.9221 22.2388 29.9221H25.2388C26.2388 29.6096 28.2388 28.9471 28.2388 28.7971C28.2388 28.6471 28.9888 28.3596 29.3638 28.2346L30.1138 26.7346L29.3638 25.0471L27.3013 20.9221L26.9263 20.7346C26.6763 20.7971 26.1388 20.8846 25.9888 20.7346C25.8013 20.5471 25.2388 20.5471 25.2388 20.3596C25.2388 20.1721 24.8638 20.1721 24.8638 19.9846C24.8638 19.7971 24.6763 19.6096 24.6763 19.4221V18.6721C24.6763 18.4846 24.8638 18.2971 24.8638 18.1096C24.8638 17.9596 25.2388 17.7971 25.4263 17.7346V17.1721C25.3013 16.9221 25.0513 16.3846 25.0513 16.2346C25.0513 16.0471 24.4888 15.6721 24.3013 15.6721C24.1138 15.6721 23.5513 15.4846 23.3638 15.4846C23.2138 15.4846 22.6763 15.7346 22.4263 15.8596L21.6763 17.1721L20.3638 19.4221Z" fill="#FDC040"/>
<path d="M12.8638 11.7346L9.67633 11.5471L9.48883 12.2971V13.9846L9.67633 16.6096C9.86383 16.6721 10.3138 16.8346 10.6138 16.9846C10.9888 17.1721 12.1138 16.9846 12.3013 16.9846C12.4888 16.9846 14.9263 16.7971 15.1138 16.6096C15.3013 16.4221 15.4888 16.0471 15.6763 15.8596C15.8638 15.6721 15.8638 15.1096 15.8638 14.9221V13.4221C15.8638 13.0471 15.6763 12.4846 15.6763 12.2971C15.6763 12.1471 15.3013 11.8596 15.1138 11.7346H12.8638Z" fill="#FDC040"/>
</g>
<path id="Vector" d="M30.484 26.0316L27.559 20.212C27.4972 20.0891 27.3815 20.0022 27.2463 19.9772C27.1111 19.9522 26.9719 19.9919 26.8703 20.0845C26.6638 20.2728 26.3949 20.3765 26.1134 20.3765C25.4915 20.3765 24.9855 19.8702 24.9855 19.248C24.9855 18.7103 25.3679 18.2448 25.8948 18.1411C26.0296 18.1145 26.1442 18.0265 26.2046 17.9032C26.265 17.7798 26.2643 17.6353 26.2026 17.5126L25.466 16.0464C25.1126 15.3436 24.4043 14.907 23.6177 14.9069C23.6176 14.9069 23.6175 14.9069 23.6175 14.9069C23.5414 14.9069 23.4665 14.9122 23.3921 14.9202C23.3729 13.8347 23.3449 12.7477 23.3078 11.6812C23.2706 10.6037 22.9538 9.55129 22.3915 8.63768C22.2643 8.43096 21.9936 8.36651 21.7869 8.49378C21.5803 8.62098 21.5158 8.89169 21.643 9.09835C22.1256 9.8824 22.3975 10.786 22.4294 11.7117C22.4697 12.8667 22.4992 14.046 22.5184 15.2214C22.2046 15.4179 21.9437 15.6993 21.7693 16.0459L19.6193 20.3238C18.787 19.0303 17.6216 18.0269 16.262 18.0269C13.8906 18.0269 12.1097 21.079 11.6575 23.3998H11.6291C11.3971 22.2097 10.8158 20.8277 9.98467 19.7631C9.9787 18.9257 9.97858 18.0845 9.98368 17.2416C10.4377 17.2506 10.8928 17.2565 11.3492 17.2565C12.4894 17.2565 13.6343 17.2284 14.7701 17.1725C15.5401 17.1346 16.165 16.5515 16.256 15.786C16.379 14.7522 16.379 13.7039 16.256 12.6702C16.165 11.9047 15.5401 11.3215 14.7703 11.2837C13.2334 11.2081 11.6771 11.184 10.1364 11.2109C10.3655 9.40668 11.4834 7.85515 13.1461 7.06999H19.3786C19.8156 7.27636 20.2235 7.54144 20.5914 7.86049C20.6746 7.93262 20.7771 7.96795 20.8791 7.96795C21.0021 7.96795 21.1245 7.91662 21.2114 7.81642C21.3703 7.63308 21.3506 7.35552 21.1672 7.19649C20.9693 7.02481 20.7608 6.86714 20.5441 6.72252C20.9241 6.4241 21.169 5.96091 21.169 5.44136C21.169 4.69557 20.665 4.06574 19.9798 3.87343V2.31939C19.9797 1.3077 19.1566 0.484619 18.1449 0.484619H14.3795C13.3679 0.484619 12.5448 1.3077 12.5448 2.31939V3.87355C11.8596 4.06585 11.3555 4.69568 11.3555 5.44147C11.3555 5.96097 11.6003 6.42404 11.9802 6.72247C11.3168 7.16497 10.7412 7.73281 10.2878 8.39897C9.62777 9.36888 9.2574 10.5039 9.21679 11.6812C9.13435 14.0604 9.09562 16.4654 9.10101 18.8457C8.48589 18.3419 7.78568 18.0269 7.02448 18.0269C5.95595 18.0269 4.87471 18.6811 3.97991 19.869C3.83384 20.0628 3.87263 20.3384 4.06652 20.4844C4.26041 20.6305 4.53592 20.5917 4.68193 20.3978C5.1017 19.8406 5.96421 18.9058 7.02454 18.9058C7.85043 18.9058 8.71804 19.4842 9.46764 20.5343C10.0612 21.3659 10.5165 22.4063 10.7322 23.3998H3.31639C3.42866 22.8842 3.60719 22.3499 3.84251 21.8298C3.94253 21.6086 3.84439 21.3483 3.62325 21.2482C3.40217 21.1482 3.14178 21.2463 3.0417 21.4675C2.75312 22.1054 2.54207 22.7659 2.42054 23.3998H1.81713C1.18848 23.3998 0.677063 23.9112 0.677063 24.5399C0.677063 25.1685 1.18853 25.6799 1.81713 25.6799H2.03311C2.10606 26.3532 2.22905 27.0241 2.34935 27.6765C2.43507 28.1414 2.52373 28.6222 2.59111 29.0907C2.6824 29.7234 3.18819 30.2156 3.82136 30.2879C4.97356 30.4188 5.99849 30.4843 7.02384 30.4843C8.04766 30.4843 9.07189 30.4191 10.2232 30.2884C10.4333 30.2645 10.6289 30.194 10.8006 30.0885C11.2491 30.3483 11.7544 30.4845 12.2805 30.4845H16.2626L16.2615 30.4842C17.2871 30.4843 18.3126 30.4188 19.4654 30.2878C19.7706 30.253 20.0457 30.1198 20.2597 29.921C21.347 30.2964 22.4779 30.4809 23.6039 30.4809C25.894 30.4809 28.1624 29.7201 29.9951 28.2627C30.6615 27.7332 30.8672 26.7949 30.484 26.0316ZM13.4237 2.31939C13.4237 1.79233 13.8525 1.36354 14.3795 1.36354H18.1449C18.6719 1.36354 19.1007 1.79233 19.1007 2.31939V3.81278H13.4237V2.31939ZM12.9842 4.6917H19.5402C19.9536 4.6917 20.2899 5.02803 20.2899 5.44142C20.2899 5.85486 19.9536 6.19119 19.5402 6.19119H12.9842C12.5708 6.19119 12.2345 5.85486 12.2345 5.44142C12.2345 5.02803 12.5709 4.6917 12.9842 4.6917ZM14.727 12.1617C15.067 12.1784 15.343 12.436 15.3832 12.7741C15.4979 13.739 15.4979 14.7174 15.3832 15.6823C15.343 16.0204 15.0669 16.278 14.7268 16.2947C13.1532 16.3722 11.5624 16.3948 9.99088 16.3635C10.0059 14.9382 10.0367 13.5107 10.0831 12.0911C11.6267 12.0627 13.1867 12.086 14.727 12.1617ZM22.5543 16.4408C22.7607 16.0307 23.158 15.7859 23.6174 15.7859H23.6175C24.0769 15.786 24.4744 16.031 24.6807 16.4412L25.1944 17.4638C24.5412 17.8013 24.1066 18.4837 24.1066 19.248C24.1066 20.3549 25.0068 21.2555 26.1134 21.2555C26.4233 21.2555 26.7249 21.1847 26.997 21.051L29.4558 25.9428C29.4531 25.945 29.4507 25.9473 29.4481 25.9494C28.212 26.9326 26.7339 27.5902 25.1736 27.8511C23.7671 28.0864 22.316 27.9966 20.9526 27.5944C21.068 26.9678 21.1837 26.325 21.2534 25.6799H21.4697C22.0983 25.6799 22.6097 25.1685 22.6097 24.5399C22.6097 23.9112 22.0983 23.3998 21.4697 23.3998H20.8664C20.7328 22.7145 20.4835 21.9656 20.1372 21.2502L22.5543 16.4408ZM13.8187 20.5345C14.5683 19.4842 15.4361 18.9058 16.2619 18.9058C17.088 18.9058 17.9557 19.4842 18.7053 20.5345C19.2988 21.366 19.754 22.4063 19.9697 23.3999H12.5541C12.7698 22.4064 13.2251 21.3661 13.8187 20.5345ZM1.55598 24.54C1.55598 24.396 1.67317 24.2788 1.81713 24.2788H21.4697C21.6137 24.2788 21.7308 24.396 21.7308 24.54C21.7308 24.6839 21.6137 24.8011 21.4697 24.8011H1.81713C1.67311 24.8011 1.55598 24.6839 1.55598 24.54ZM11.3761 29.3995C11.4143 29.3014 11.4426 29.1983 11.4581 29.0907C11.4992 28.8025 11.5479 28.4592 11.5989 28.0929C11.6024 28.0681 11.6043 28.0544 11.6432 28.0544C11.6823 28.0544 11.6841 28.0681 11.6876 28.0926C11.7386 28.4593 11.7874 28.8026 11.8285 29.0912C11.8542 29.2698 11.9141 29.4367 11.9999 29.5867C11.7823 29.5576 11.5726 29.4946 11.3761 29.3995ZM19.3659 29.4147C17.1343 29.6683 15.395 29.6685 13.1628 29.4153C12.9235 29.388 12.7326 29.2033 12.6985 28.9666C12.6576 28.6793 12.609 28.3371 12.558 27.971C12.4924 27.5026 12.1162 27.1754 11.6432 27.1755C11.1702 27.1755 10.794 27.5026 10.7284 27.9714C10.6775 28.3371 10.6289 28.6794 10.588 28.9661C10.5539 29.2033 10.363 29.388 10.1239 29.4153C7.89121 29.6685 6.15195 29.6683 3.92079 29.4147C3.68436 29.3877 3.49528 29.2029 3.461 28.9654C3.39116 28.4799 3.30092 27.9905 3.21362 27.5172C3.10211 26.9126 2.98838 26.2918 2.91748 25.68H20.369C20.298 26.2935 20.184 26.916 20.0722 27.5222C19.9853 27.994 19.8953 28.4818 19.8255 28.9658C19.7913 29.2032 19.6022 29.3877 19.3659 29.4147ZM29.4481 27.5748C26.9874 29.5316 23.6676 30.1133 20.6869 29.1369C20.6896 29.1217 20.6932 29.1068 20.6954 29.0914C20.7254 28.8841 20.7598 28.6743 20.7959 28.4646C21.714 28.726 22.6671 28.8586 23.6218 28.8586C24.1893 28.8586 24.7573 28.8119 25.3187 28.7181C26.9423 28.4465 28.4841 27.7815 29.7955 26.791C29.8123 27.0868 29.6894 27.3831 29.4481 27.5748Z" fill="#3BB77E"/>
<path id="Vector_2" d="M24.027 25.8787C24.3231 26.3095 24.7692 26.599 25.2831 26.6942C25.4034 26.7165 25.5239 26.7275 25.6436 26.7275C26.0355 26.7275 26.4181 26.6095 26.7481 26.3826C27.1788 26.0865 27.4684 25.6403 27.5635 25.1264C27.6588 24.6125 27.548 24.0922 27.2519 23.6615C26.9558 23.2308 26.5097 22.9412 25.9958 22.8461C25.4817 22.7509 24.9616 22.8616 24.5309 23.1577C24.1001 23.4538 23.8106 23.8999 23.7154 24.4138C23.6201 24.9278 23.7308 25.4481 24.027 25.8787ZM24.5795 24.5739C24.632 24.2907 24.7915 24.045 25.0288 23.8819C25.2105 23.7569 25.4212 23.6919 25.6372 23.6919C25.7031 23.6919 25.7695 23.698 25.8357 23.7103C26.1188 23.7627 26.3645 23.9222 26.5277 24.1595C26.6909 24.3967 26.7518 24.6833 26.6994 24.9664C26.647 25.2496 26.4874 25.4953 26.2502 25.6584C26.0129 25.8216 25.7262 25.8825 25.4433 25.8301C25.1602 25.7777 24.9144 25.6182 24.7512 25.3809C24.5881 25.1436 24.5271 24.857 24.5795 24.5739Z" fill="#3BB77E"/>
<path id="Vector_3" d="M22.1814 23.2428C22.2691 23.2591 22.357 23.2671 22.4442 23.2671C22.73 23.2671 23.0089 23.181 23.2495 23.0157C23.5635 22.7997 23.7746 22.4745 23.8439 22.0998C23.9134 21.7251 23.8326 21.3459 23.6168 21.0318C23.4009 20.7177 23.0756 20.5066 22.701 20.4372C21.9275 20.2941 21.1816 20.8068 21.0384 21.5803C20.8951 22.3538 21.4079 23.0996 22.1814 23.2428ZM21.9026 21.7403C21.9575 21.4434 22.2439 21.2464 22.5409 21.3015C22.6847 21.3282 22.8096 21.4092 22.8925 21.5298C22.9754 21.6504 23.0064 21.796 22.9798 21.9398C22.9531 22.0837 22.8721 22.2086 22.7515 22.2914C22.6309 22.3743 22.4855 22.4053 22.3414 22.3787C22.0445 22.3236 21.8476 22.0373 21.9026 21.7403Z" fill="#3BB77E"/>
</g>
</g>
<defs>
<clipPath id="clip0_3374_4461">
<rect width="30" height="30" fill="white" transform="translate(0.676392 0.484619)"/>
</clipPath>
</defs>
</svg>
