<svg width="31" height="30" viewBox="0 0 31 30" fill="none" xmlns="http://www.w3.org/2000/svg">
<g id="010-milk products 1" clip-path="url(#clip0_3374_4516)">
<g id="Group 18">
<g id="Vector 13">
<path d="M16.1343 20.472C11.9397 20.5346 3.55059 20.6222 3.55059 20.472H3.36277L3.55059 22.3502C3.67578 22.4128 3.96372 22.5755 4.11398 22.7258C4.30179 22.9136 4.48961 23.1014 4.48961 23.2892V23.8527C4.48961 24.0405 4.11398 24.2283 4.11398 24.4161C4.11398 24.6039 3.55059 24.7918 3.36277 24.9796C3.21252 25.1298 3.30017 25.9187 3.36277 26.2943L16.3221 25.9187L16.1343 20.472Z" fill="#FDC040"/>
<path d="M10.4997 12.9593L9.93627 16.1522L11.6266 15.401L13.1291 14.6497C13.3796 14.7749 13.918 15.0629 14.0682 15.2131C14.256 15.401 15.5708 17.0913 15.7586 17.2791C15.9088 17.4294 16.322 19.7207 16.5098 20.8476V24.0405L16.8855 25.9187H18.2002C18.1376 26.2943 18.0124 27.0831 18.0124 27.2334C18.0124 27.4212 17.8246 27.7968 18.0124 27.9846C18.2002 28.1724 18.5758 27.9846 18.9514 28.1724C19.3271 28.3603 20.454 28.1724 21.2052 28.1724C21.9565 28.1724 23.6469 28.1724 24.0225 27.9846C24.3981 27.7968 25.3372 27.609 25.525 27.4212C25.7128 27.2334 26.2763 25.9187 26.2763 25.7308C26.2763 25.5806 26.0259 23.7901 25.9006 22.9136C25.5876 20.9102 24.9616 16.8659 24.9616 16.7157C24.9616 16.5279 24.0225 12.3959 24.0225 12.2081C24.0225 12.0578 23.7721 12.1455 23.6469 12.2081C23.2086 12.3959 22.2946 12.7715 22.1443 12.7715H20.0783C19.9281 12.7715 18.8888 12.3959 18.388 12.2081L16.3221 12.0203C15.4456 12.0829 13.655 12.2081 13.5048 12.2081C13.3545 12.2081 11.4388 12.7089 10.4997 12.9593Z" fill="#FDC040"/>
</g>
<path id="Vector" d="M3.42082 23.9954C3.14473 23.9954 2.92088 24.2193 2.92088 24.4954V25.4953H1.42105C1.14496 25.4953 0.921104 25.7191 0.921104 25.9952C0.923301 27.9271 2.4888 29.4926 4.4207 29.4948H15.4194C16.3339 29.4951 17.2117 29.136 17.8637 28.4949H23.3446C24.3767 28.4964 25.357 28.0423 26.0235 27.2541C26.6901 26.4659 26.975 25.4238 26.8022 24.406L26.2183 20.9958H27.2626C28.3323 21.0021 29.3527 20.5466 30.0623 19.7459C30.7619 18.9616 31.0575 17.8968 30.8623 16.8639L29.5238 9.86475C29.1662 8.17012 27.6566 6.96738 25.9248 6.9974H23.9109L23.9529 5.0528L24.445 2.63292C24.4748 2.48645 24.4375 2.33388 24.343 2.21768C24.2488 2.10148 24.1072 2.03386 23.9575 2.03313L15.9194 1.99798C15.107 1.96161 14.317 1.72091 13.622 1.29811C12.658 0.63998 11.4785 0.376827 10.326 0.562352L8.82279 0.862122C8.65777 0.895078 8.52057 1.00859 8.45711 1.16433C8.39388 1.32008 8.41317 1.49706 8.50812 1.63572L10.886 5.09235L10.92 7.45804L9.41256 16.1204L3.15376 20.073C3.13594 20.087 3.11934 20.1021 3.10396 20.1185C3.08614 20.1316 3.06954 20.146 3.05392 20.1614C3.02487 20.1941 3.00021 20.2305 2.98093 20.2696C2.97385 20.2835 2.96384 20.2949 2.95798 20.3101C2.93479 20.366 2.9221 20.4258 2.92088 20.4866V20.4959V22.4956C2.92088 22.772 3.14473 22.9956 3.42082 22.9956C3.69691 22.9956 3.92076 23.2194 3.92076 23.4955C3.92076 23.7718 3.69691 23.9954 3.42082 23.9954ZM15.4194 28.4949H4.4207C3.23334 28.4937 2.21002 27.6584 1.97103 26.4952H17.8691C17.6301 27.6584 16.6068 28.4937 15.4194 28.4949ZM25.9248 7.99729C27.1757 7.96922 28.2708 8.83167 28.5368 10.0542L29.8753 17.0534C30.0125 17.783 29.8033 18.5349 29.309 19.0885C28.7892 19.6715 28.0435 20.0023 27.2626 19.9959H26.0471L25.8758 18.996H27.2626C27.7154 19.0012 28.1477 18.8076 28.446 18.4668C28.747 18.128 28.8737 17.6685 28.7885 17.2233L27.45 10.2241C27.3011 9.50273 26.6613 8.98814 25.9248 8.99717H24.1645L23.9929 7.99729H25.9248ZM25.7049 17.9961L24.3354 9.99706H25.9248C26.1816 9.98803 26.4091 10.1616 26.4682 10.4116L27.806 17.4108C27.834 17.5531 27.7925 17.7 27.6946 17.8067C27.5858 17.931 27.4276 18.0005 27.2626 17.9961H25.7049ZM11.8918 5.49758H22.943L22.9 7.48685C22.8995 7.51883 22.9022 7.55056 22.9076 7.58205L23.6185 11.729L22.0857 12.043C20.6793 12.3296 19.2239 12.2644 17.8486 11.8535C15.9387 11.2772 13.8969 11.3084 12.0053 11.9424L11.1055 12.2424L11.9159 7.58254C11.9201 7.55203 11.9216 7.52127 11.9198 7.49051L11.8918 5.49758ZM9.76213 1.69821L10.5096 1.54808C11.416 1.40698 12.3422 1.62204 13.0938 2.14811C13.9477 2.66807 14.9205 2.96051 15.9194 2.99786L23.346 3.03057L23.0455 4.49769H11.6894L9.76213 1.69821ZM10.9075 13.3634L12.3202 12.8922C14.0165 12.3235 15.8476 12.2959 17.5603 12.8134C19.0936 13.2713 20.7164 13.3438 22.2846 13.0243L23.7844 12.717L25.8182 24.575C25.9424 25.3027 25.7386 26.0479 25.2616 26.6111C24.7843 27.1745 24.0828 27.498 23.3446 27.495H18.5765C18.8014 27.0271 18.9183 26.5147 18.919 25.9952C18.919 25.7191 18.6952 25.4953 18.4191 25.4953H16.9193V20.4959C16.9137 17.8345 15.4829 15.38 13.1697 14.0637C13.0088 13.9707 12.8099 13.9746 12.6527 14.0737L10.5531 15.4L10.9075 13.3634ZM12.9273 15.0856C14.6368 16.1621 15.7385 17.982 15.8994 19.9959H5.1506L12.9273 15.0856ZM3.92076 24.9099C4.52055 24.6982 4.92138 24.1314 4.92138 23.4955C4.92138 22.8596 4.52055 22.293 3.92076 22.0814V20.9958H15.9194V25.4953H3.92076V24.9099Z" fill="#3BB77E"/>
<path id="Vector_2" d="M11.9199 23.4946H12.9198V24.4945H11.9199V23.4946Z" fill="#3BB77E"/>
<path id="Vector_3" d="M7.42043 21.9948H8.42032V22.9947H7.42043V21.9948Z" fill="#3BB77E"/>
</g>
</g>
<defs>
<clipPath id="clip0_3374_4516">
<rect width="30" height="30" fill="white" transform="translate(0.921104)"/>
</clipPath>
</defs>
</svg>
